<svg xmlns="http://www.w3.org/2000/svg" width="1200" height="300" viewBox="0 0 1200 300" role="img"
     aria-label="Motorsport Strategy Lab -- Bayesian and Monte Carlo race strategy research across F1, WEC and IMSA">
  <title>Motorsport Strategy Lab</title>
  <rect width="1200" height="300" fill="#ffffff"/>
  <g><rect x="520" y="260" width="26" height="26" fill="#855fff"/><rect x="104" y="182" width="52" height="26" fill="#301c6f"/><rect x="520" y="182" width="26" height="52" fill="#6e34d6"/><rect x="1066" y="104" width="26" height="26" fill="#7774e6"/><rect x="78" y="182" width="26" height="52" fill="#2c1b67"/><rect x="1144" y="130" width="26" height="26" fill="#7581e3"/><rect x="910" y="130" width="52" height="26" fill="#8569ff"/><rect x="832" y="78" width="78" height="52" fill="#7c59ee"/><rect x="572" y="26" width="26" height="26" fill="#6f35d8"/><rect x="572" y="208" width="52" height="52" fill="#7b4aee"/><rect x="1092" y="104" width="78" height="26" fill="#797fec"/><rect x="52" y="0" width="26" height="52" fill="#201653"/><rect x="1040" y="52" width="52" height="52" fill="#8486ff"/><rect x="754" y="286" width="26" height="26" fill="#8196fb"/><rect x="416" y="208" width="26" height="26" fill="#622fc1"/><rect x="156" y="26" width="26" height="26" fill="#361e78"/><rect x="910" y="104" width="52" height="26" fill="#755de2"/><rect x="1066" y="26" width="52" height="26" fill="#7884e9"/><rect x="208" y="52" width="26" height="26" fill="#3f2186"/><rect x="988" y="78" width="26" height="78" fill="#8675ff"/><rect x="884" y="0" width="26" height="52" fill="#856dff"/><rect x="1092" y="156" width="26" height="26" fill="#8896ff"/><rect x="676" y="286" width="26" height="26" fill="#8087f9"/><rect x="338" y="52" width="26" height="26" fill="#5128a3"/><rect x="260" y="52" width="78" height="26" fill="#492596"/><rect x="910" y="78" width="26" height="26" fill="#836afe"/><rect x="182" y="52" width="26" height="26" fill="#42238d"/><rect x="208" y="26" width="52" height="26" fill="#42238e"/><rect x="1144" y="286" width="26" height="26" fill="#8adeff"/><rect x="312" y="182" width="26" height="52" fill="#4b2699"/><rect x="754" y="0" width="52" height="52" fill="#8355fd"/><rect x="416" y="0" width="52" height="52" fill="#602fc1"/><rect x="624" y="286" width="52" height="26" fill="#8180fb"/><rect x="26" y="26" width="26" height="26" fill="#24185c"/><rect x="52" y="260" width="52" height="26" fill="#492599"/><rect x="702" y="286" width="26" height="26" fill="#828dfb"/><rect x="1092" y="286" width="26" height="26" fill="#77c0ea"/><rect x="182" y="0" width="52" height="26" fill="#2e1b6a"/><rect x="208" y="260" width="52" height="52" fill="#6d34d5"/><rect x="832" y="52" width="78" height="26" fill="#765ce3"/><rect x="806" y="26" width="78" height="26" fill="#765ae5"/><rect x="962" y="156" width="52" height="26" fill="#8076f8"/><rect x="1118" y="156" width="26" height="26" fill="#7c8ef2"/><rect x="1118" y="78" width="52" height="26" fill="#808af9"/><rect x="286" y="286" width="26" height="26" fill="#7938e9"/><rect x="130" y="208" width="52" height="52" fill="#41228b"/><rect x="468" y="208" width="26" height="26" fill="#6e34d7"/><rect x="286" y="234" width="52" height="52" fill="#6731ca"/><rect x="286" y="0" width="78" height="52" fill="#4e28a3"/><rect x="754" y="52" width="26" height="78" fill="#824ffb"/><rect x="910" y="52" width="52" height="26" fill="#8472ff"/><rect x="0" y="52" width="52" height="26" fill="#291962"/><rect x="546" y="0" width="26" height="52" fill="#7336e0"/><rect x="52" y="182" width="26" height="52" fill="#2c1b69"/><rect x="260" y="208" width="52" height="26" fill="#552bae"/><rect x="1118" y="286" width="26" height="26" fill="#89ddff"/><rect x="598" y="52" width="26" height="26" fill="#7236dd"/><rect x="234" y="234" width="26" height="26" fill="#5228a6"/><rect x="390" y="182" width="26" height="78" fill="#5b2cb5"/><rect x="468" y="26" width="26" height="26" fill="#6933cf"/><rect x="962" y="52" width="26" height="78" fill="#7a6bec"/><rect x="702" y="52" width="26" height="26" fill="#7946e9"/><rect x="572" y="52" width="26" height="26" fill="#7034d8"/><rect x="936" y="0" width="26" height="52" fill="#8375fd"/><rect x="988" y="52" width="26" height="26" fill="#867fff"/><rect x="338" y="208" width="26" height="26" fill="#5429a7"/><rect x="546" y="260" width="78" height="52" fill="#7564e2"/><rect x="0" y="286" width="26" height="26" fill="#4a269a"/><rect x="1118" y="130" width="26" height="26" fill="#7b82ee"/><rect x="1040" y="156" width="26" height="26" fill="#8286fe"/><rect x="182" y="234" width="26" height="26" fill="#5229a8"/><rect x="884" y="286" width="26" height="26" fill="#79a3ed"/><rect x="364" y="182" width="26" height="78" fill="#572aad"/><rect x="676" y="52" width="26" height="26" fill="#7f45f4"/><rect x="104" y="26" width="52" height="26" fill="#2d1b68"/><rect x="1040" y="26" width="26" height="26" fill="#757ae3"/><rect x="624" y="26" width="52" height="26" fill="#7a3bea"/><rect x="104" y="208" width="26" height="26" fill="#361f79"/><rect x="1066" y="130" width="52" height="26" fill="#7475e2"/><rect x="806" y="0" width="26" height="26" fill="#734ede"/><rect x="728" y="130" width="26" height="26" fill="#8243fa"/><rect x="728" y="52" width="26" height="52" fill="#8550ff"/><rect x="338" y="234" width="26" height="26" fill="#6832cc"/><rect x="962" y="130" width="26" height="26" fill="#7d6af3"/><rect x="806" y="78" width="26" height="26" fill="#7a52eb"/><rect x="1014" y="130" width="52" height="26" fill="#8078f9"/><rect x="442" y="182" width="52" height="26" fill="#5f2ebd"/><rect x="936" y="286" width="26" height="26" fill="#78aaed"/><rect x="260" y="260" width="26" height="26" fill="#6832cb"/><rect x="832" y="0" width="26" height="26" fill="#7f5bf4"/><rect x="1066" y="0" width="78" height="26" fill="#7581e4"/><rect x="26" y="182" width="26" height="26" fill="#24185c"/><rect x="468" y="234" width="26" height="52" fill="#7c45ee"/><rect x="26" y="234" width="78" height="26" fill="#391f7d"/><rect x="182" y="208" width="52" height="26" fill="#43238f"/><rect x="624" y="0" width="26" height="26" fill="#7c3aef"/><rect x="234" y="182" width="26" height="26" fill="#42238c"/><rect x="26" y="260" width="26" height="26" fill="#3e2183"/><rect x="104" y="52" width="52" height="26" fill="#361e77"/><rect x="78" y="286" width="26" height="26" fill="#582bb0"/><rect x="130" y="286" width="26" height="26" fill="#612fc0"/><rect x="104" y="286" width="26" height="26" fill="#5f2ebd"/><rect x="806" y="286" width="26" height="26" fill="#82a1fe"/><rect x="260" y="26" width="26" height="26" fill="#49269a"/><rect x="1014" y="286" width="78" height="26" fill="#82caff"/><rect x="728" y="286" width="26" height="26" fill="#8292fd"/><rect x="182" y="286" width="26" height="26" fill="#6c34d3"/><rect x="1170" y="156" width="52" height="26" fill="#89a9ff"/><rect x="1014" y="78" width="26" height="52" fill="#8277fb"/><rect x="494" y="52" width="78" height="26" fill="#6c33d2"/><rect x="858" y="156" width="52" height="26" fill="#7f61f5"/><rect x="208" y="182" width="26" height="26" fill="#391f7b"/><rect x="1196" y="130" width="26" height="26" fill="#87a0ff"/><rect x="130" y="0" width="26" height="26" fill="#291963"/><rect x="52" y="286" width="26" height="26" fill="#572bb0"/><rect x="442" y="286" width="26" height="26" fill="#7f58f4"/><rect x="546" y="182" width="26" height="26" fill="#6a32cd"/><rect x="234" y="52" width="26" height="26" fill="#4a2699"/><rect x="442" y="52" width="26" height="26" fill="#5f2ebb"/><rect x="26" y="208" width="26" height="26" fill="#291961"/><rect x="988" y="26" width="52" height="26" fill="#8584ff"/><rect x="702" y="26" width="26" height="26" fill="#7644e3"/><rect x="780" y="78" width="26" height="52" fill="#794bea"/><rect x="78" y="26" width="26" height="26" fill="#281960"/><rect x="104" y="0" width="26" height="26" fill="#25195d"/><rect x="390" y="26" width="26" height="26" fill="#5f2fbf"/><rect x="0" y="208" width="26" height="52" fill="#2f1c6e"/><rect x="26" y="0" width="26" height="26" fill="#15113e"/><rect x="494" y="234" width="26" height="26" fill="#7b40ec"/><rect x="1170" y="26" width="52" height="78" fill="#86a1ff"/><rect x="1144" y="156" width="26" height="26" fill="#788eea"/><rect x="1014" y="52" width="26" height="26" fill="#807ef8"/><rect x="1040" y="0" width="26" height="26" fill="#8488ff"/><rect x="858" y="130" width="26" height="26" fill="#7a55eb"/><rect x="494" y="208" width="26" height="26" fill="#7838e9"/><rect x="1196" y="286" width="26" height="26" fill="#84d5ff"/><rect x="1118" y="52" width="52" height="26" fill="#7786e8"/><rect x="468" y="286" width="78" height="26" fill="#765ce4"/><rect x="338" y="260" width="26" height="52" fill="#7f3cf2"/><rect x="364" y="52" width="52" height="26" fill="#5f2ebf"/><rect x="702" y="0" width="26" height="26" fill="#7b3fec"/><rect x="468" y="52" width="26" height="26" fill="#6631c8"/><rect x="936" y="156" width="26" height="26" fill="#7867e9"/><rect x="156" y="0" width="26" height="26" fill="#2a1a63"/><rect x="468" y="0" width="52" height="26" fill="#582baf"/><rect x="910" y="286" width="26" height="26" fill="#83b5ff"/><rect x="910" y="156" width="26" height="26" fill="#7b65ee"/><rect x="728" y="0" width="26" height="26" fill="#7944e8"/><rect x="806" y="130" width="26" height="26" fill="#8252fc"/><rect x="780" y="52" width="26" height="26" fill="#7952e9"/><rect x="650" y="0" width="26" height="26" fill="#7e3af2"/><rect x="104" y="234" width="26" height="52" fill="#4e28a3"/><rect x="364" y="260" width="26" height="26" fill="#833dfd"/><rect x="416" y="52" width="26" height="26" fill="#6631cc"/><rect x="156" y="52" width="26" height="26" fill="#391f7c"/><rect x="182" y="26" width="26" height="26" fill="#371f79"/><rect x="52" y="52" width="52" height="26" fill="#2f1c6d"/><rect x="728" y="26" width="26" height="26" fill="#7e4ef2"/><rect x="78" y="0" width="26" height="26" fill="#1c144b"/><rect x="130" y="260" width="26" height="26" fill="#5028a1"/><rect x="806" y="104" width="26" height="26" fill="#7a4eec"/><rect x="650" y="52" width="26" height="26" fill="#8141f7"/><rect x="260" y="0" width="26" height="26" fill="#40238b"/><rect x="364" y="26" width="26" height="26" fill="#542aab"/><rect x="832" y="156" width="26" height="26" fill="#7854e7"/><rect x="546" y="234" width="26" height="26" fill="#794aea"/><rect x="26" y="286" width="26" height="26" fill="#5128a5"/><rect x="832" y="286" width="26" height="26" fill="#7b9cf0"/><rect x="624" y="52" width="26" height="26" fill="#7336dc"/><rect x="182" y="182" width="26" height="26" fill="#381e7a"/><rect x="442" y="208" width="26" height="26" fill="#6d34d5"/><rect x="572" y="182" width="26" height="26" fill="#7b3aef"/><rect x="754" y="130" width="26" height="26" fill="#7b43ed"/><rect x="1066" y="156" width="26" height="26" fill="#7d84f2"/><rect x="0" y="0" width="26" height="26" fill="#141140"/><rect x="780" y="156" width="52" height="26" fill="#754be1"/><rect x="806" y="52" width="26" height="26" fill="#7957ea"/><rect x="780" y="286" width="26" height="26" fill="#758ee6"/><rect x="676" y="0" width="26" height="26" fill="#7638e2"/><rect x="312" y="286" width="26" height="26" fill="#7b3ceb"/><rect x="260" y="286" width="26" height="26" fill="#7737e6"/><rect x="832" y="130" width="26" height="26" fill="#774ee5"/><rect x="442" y="234" width="26" height="52" fill="#753cdf"/><rect x="780" y="130" width="26" height="26" fill="#844efe"/><rect x="208" y="234" width="26" height="26" fill="#542aac"/><rect x="858" y="286" width="26" height="26" fill="#789cea"/><rect x="1170" y="130" width="26" height="26" fill="#7c8df1"/><rect x="0" y="26" width="26" height="26" fill="#211757"/><rect x="364" y="0" width="26" height="26" fill="#492597"/><rect x="1170" y="0" width="52" height="26" fill="#7e9bf7"/><rect x="494" y="182" width="26" height="26" fill="#6e35d8"/><rect x="0" y="260" width="26" height="26" fill="#3f2187"/><rect x="338" y="182" width="26" height="26" fill="#542bad"/><rect x="234" y="0" width="26" height="26" fill="#3b2283"/><rect x="1092" y="52" width="26" height="52" fill="#7f86f7"/><rect x="546" y="208" width="26" height="26" fill="#7336dd"/><rect x="156" y="182" width="26" height="26" fill="#321c6f"/><rect x="598" y="182" width="26" height="26" fill="#6e33d5"/><rect x="1144" y="0" width="26" height="26" fill="#8298fd"/><rect x="494" y="260" width="26" height="26" fill="#8157f8"/><rect x="910" y="26" width="26" height="26" fill="#7d6cf1"/><rect x="988" y="0" width="26" height="26" fill="#7973ea"/><rect x="858" y="0" width="26" height="26" fill="#775ae5"/><rect x="1196" y="104" width="26" height="26" fill="#8396ff"/><rect x="1014" y="0" width="26" height="26" fill="#8584ff"/><rect x="416" y="260" width="26" height="52" fill="#834ffe"/><rect x="884" y="130" width="26" height="26" fill="#7d5cf2"/><rect x="572" y="0" width="26" height="26" fill="#6d34d5"/><rect x="1014" y="156" width="26" height="26" fill="#817ef9"/><rect x="1170" y="104" width="26" height="26" fill="#7986eb"/><rect x="182" y="260" width="26" height="26" fill="#592cb3"/><rect x="910" y="0" width="26" height="26" fill="#7c68f1"/><rect x="520" y="0" width="26" height="52" fill="#622fbf"/><rect x="1118" y="26" width="52" height="26" fill="#859bff"/><rect x="520" y="234" width="26" height="26" fill="#844cfe"/><rect x="390" y="286" width="26" height="26" fill="#7e4ef4"/><rect x="260" y="234" width="26" height="26" fill="#602fc2"/><rect x="260" y="182" width="26" height="26" fill="#4a279a"/><rect x="962" y="26" width="26" height="26" fill="#857dff"/><rect x="598" y="0" width="26" height="52" fill="#7939ea"/><rect x="364" y="286" width="26" height="26" fill="#804af5"/><rect x="1040" y="104" width="26" height="26" fill="#7771e7"/><rect x="416" y="182" width="26" height="26" fill="#5a2cb3"/><rect x="390" y="260" width="26" height="26" fill="#8140f6"/><rect x="728" y="104" width="26" height="26" fill="#753ee1"/><rect x="962" y="286" width="26" height="26" fill="#7eb6f7"/><rect x="494" y="26" width="26" height="26" fill="#6630c9"/><rect x="754" y="156" width="26" height="26" fill="#7344de"/><rect x="676" y="26" width="26" height="26" fill="#7740e4"/><rect x="156" y="260" width="26" height="26" fill="#5228a6"/><rect x="962" y="0" width="26" height="26" fill="#786de7"/><rect x="728" y="156" width="26" height="26" fill="#7942e8"/><rect x="286" y="182" width="26" height="26" fill="#472596"/><rect x="0" y="182" width="26" height="26" fill="#211654"/><rect x="936" y="78" width="26" height="26" fill="#7c69f1"/><rect x="1170" y="286" width="26" height="26" fill="#8adeff"/><rect x="416" y="234" width="26" height="26" fill="#7838e7"/><rect x="390" y="0" width="26" height="26" fill="#562bb0"/><rect x="156" y="286" width="26" height="26" fill="#6530c7"/><rect x="234" y="208" width="26" height="26" fill="#462593"/><rect x="988" y="286" width="26" height="26" fill="#7fbcf9"/></g>
  <rect x="60" y="76" width="90" height="4" fill="#E10600"/>
  <text x="60" y="140" font-family="Space Grotesk, Arial, sans-serif" font-weight="700"
        font-size="46" fill="#12141C" letter-spacing="0.5">MOTORSPORT STRATEGY LAB</text>
  <text x="60" y="172" font-family="Inter, Arial, sans-serif" font-weight="400"
        font-size="19" fill="#4A4E5C">Bayesian &amp; Monte Carlo Race Strategy Research — F1 · WEC · IMSA</text>
  <g font-family="JetBrains Mono, Consolas, monospace">
    <g><rect x="658" y="200" width="150" height="78" fill="#ffffff" stroke="#D2D5DE"/>
      <text x="672" y="228" font-size="22" font-weight="700" fill="#E10600">3</text>
      <text x="672" y="264" font-size="11" fill="#4A4E5C">SERIES</text></g>
    <g><rect x="824" y="200" width="150" height="78" fill="#ffffff" stroke="#D2D5DE"/>
      <text x="838" y="228" font-size="22" font-weight="700" fill="#E10600">140+</text>
      <text x="838" y="264" font-size="11" fill="#4A4E5C">TESTS</text></g>
    <g><rect x="990" y="200" width="150" height="78" fill="#ffffff" stroke="#D2D5DE"/>
      <text x="1004" y="228" font-size="22" font-weight="700" fill="#E10600">5</text>
      <text x="1004" y="264" font-size="11" fill="#4A4E5C">AUDITED RACES</text></g>
  </g>
</svg>
