<svg xmlns="http://www.w3.org/2000/svg" width="1200" height="300" viewBox="0 0 1200 300" role="img"
     aria-label="Motorsport Strategy Lab -- Bayesian and Monte Carlo race strategy research across F1, WEC and IMSA">
  <title>Motorsport Strategy Lab</title>
  <rect width="1200" height="300" fill="#ffffff"/>
  <g><rect x="504" y="252" width="36" height="36" fill="#664de9"/><rect x="0" y="216" width="72" height="36" fill="#ffffff"/><rect x="648" y="72" width="36" height="36" fill="#ffffff"/><rect x="1188" y="36" width="36" height="108" fill="#5863f4"/><rect x="504" y="0" width="72" height="36" fill="#ffffff"/><rect x="576" y="288" width="36" height="36" fill="#5c60f5"/><rect x="360" y="36" width="72" height="36" fill="#ffffff"/><rect x="288" y="216" width="72" height="36" fill="#7e3af2"/><rect x="288" y="108" width="72" height="108" fill="#ffffff"/><rect x="216" y="72" width="108" height="36" fill="#ffffff"/><rect x="252" y="216" width="36" height="36" fill="#9066db"/><rect x="576" y="216" width="36" height="72" fill="#614de3"/><rect x="720" y="180" width="72" height="72" fill="#6057ef"/><rect x="288" y="0" width="36" height="36" fill="#ffffff"/><rect x="0" y="144" width="108" height="36" fill="#ffffff"/><rect x="396" y="288" width="108" height="36" fill="#6751f1"/><rect x="72" y="216" width="72" height="72" fill="#ffffff"/><rect x="108" y="144" width="108" height="72" fill="#ffffff"/><rect x="36" y="0" width="108" height="36" fill="#ffffff"/><rect x="936" y="144" width="72" height="36" fill="#575ae5"/><rect x="900" y="216" width="36" height="72" fill="#f4f6fd"/><rect x="1044" y="288" width="36" height="36" fill="#2b79d4"/><rect x="864" y="36" width="72" height="72" fill="#ffffff"/><rect x="540" y="36" width="36" height="36" fill="#ffffff"/><rect x="108" y="72" width="72" height="36" fill="#ffffff"/><rect x="792" y="252" width="108" height="72" fill="#446be3"/><rect x="36" y="180" width="36" height="36" fill="#ffffff"/><rect x="756" y="252" width="36" height="72" fill="#4b65e4"/><rect x="792" y="36" width="36" height="36" fill="#ffffff"/><rect x="1080" y="180" width="36" height="72" fill="#ffffff"/><rect x="936" y="288" width="36" height="36" fill="#3a7eed"/><rect x="180" y="108" width="36" height="36" fill="#ffffff"/><rect x="252" y="108" width="36" height="36" fill="#ffffff"/><rect x="396" y="216" width="36" height="36" fill="#763ce8"/><rect x="1008" y="180" width="72" height="36" fill="#ffffff"/><rect x="504" y="72" width="72" height="72" fill="#ffffff"/><rect x="612" y="180" width="36" height="36" fill="#6540d8"/><rect x="1080" y="252" width="108" height="36" fill="#3388f0"/><rect x="72" y="108" width="36" height="36" fill="#ffffff"/><rect x="1116" y="180" width="36" height="72" fill="#ffffff"/><rect x="1044" y="144" width="36" height="36" fill="#5163ea"/><rect x="612" y="36" width="36" height="108" fill="#ffffff"/><rect x="864" y="180" width="36" height="72" fill="#ffffff"/><rect x="972" y="36" width="36" height="72" fill="#704bf6"/><rect x="1044" y="216" width="36" height="36" fill="#ffffff"/><rect x="612" y="252" width="72" height="36" fill="#5d59ed"/><rect x="72" y="72" width="36" height="36" fill="#ffffff"/><rect x="792" y="144" width="36" height="72" fill="#5a4bd8"/><rect x="180" y="36" width="36" height="36" fill="#ffffff"/><rect x="936" y="36" width="36" height="36" fill="#ffffff"/><rect x="324" y="36" width="36" height="72" fill="#ffffff"/><rect x="1080" y="0" width="108" height="72" fill="#6b4ff3"/><rect x="468" y="252" width="36" height="36" fill="#6849e8"/><rect x="432" y="36" width="72" height="108" fill="#ffffff"/><rect x="684" y="36" width="36" height="36" fill="#ffffff"/><rect x="396" y="72" width="36" height="72" fill="#ffffff"/><rect x="216" y="216" width="36" height="36" fill="#ffffff"/><rect x="684" y="72" width="72" height="72" fill="#ffffff"/><rect x="936" y="216" width="108" height="36" fill="#ffffff"/><rect x="216" y="0" width="36" height="72" fill="#ffffff"/><rect x="828" y="108" width="72" height="72" fill="#644ce4"/><rect x="1116" y="72" width="72" height="36" fill="#5a5bea"/><rect x="972" y="0" width="36" height="36" fill="#ffffff"/><rect x="648" y="144" width="72" height="72" fill="#6c46e9"/><rect x="900" y="0" width="36" height="36" fill="#ffffff"/><rect x="468" y="216" width="72" height="36" fill="#6e43e8"/><rect x="648" y="288" width="36" height="36" fill="#5667f4"/><rect x="864" y="0" width="36" height="36" fill="#ffffff"/><rect x="108" y="288" width="72" height="36" fill="#7c3af0"/><rect x="432" y="0" width="72" height="36" fill="#ffffff"/><rect x="576" y="36" width="36" height="72" fill="#ffffff"/><rect x="1008" y="72" width="108" height="36" fill="#6555f3"/><rect x="1188" y="288" width="36" height="36" fill="#2694ee"/><rect x="1080" y="288" width="72" height="36" fill="#2b8eed"/><rect x="828" y="216" width="36" height="36" fill="#4d5bda"/><rect x="360" y="252" width="36" height="36" fill="#6c3edd"/><rect x="756" y="72" width="36" height="108" fill="#693eda"/><rect x="396" y="144" width="36" height="36" fill="#ffffff"/><rect x="1044" y="108" width="72" height="36" fill="#5459e1"/><rect x="0" y="288" width="36" height="36" fill="#6630c8"/><rect x="756" y="36" width="36" height="36" fill="#ffffff"/><rect x="360" y="288" width="36" height="36" fill="#6e4cf4"/><rect x="576" y="180" width="36" height="36" fill="#7848fa"/><rect x="792" y="72" width="36" height="36" fill="#ffffff"/><rect x="144" y="216" width="36" height="72" fill="#ffffff"/><rect x="648" y="108" width="36" height="36" fill="#ffffff"/><rect x="180" y="0" width="36" height="36" fill="#ffffff"/><rect x="612" y="144" width="36" height="36" fill="#ffffff"/><rect x="1188" y="180" width="36" height="36" fill="#3d7bec"/><rect x="1152" y="144" width="36" height="36" fill="#4365d9"/><rect x="504" y="288" width="72" height="36" fill="#5550d6"/><rect x="648" y="36" width="36" height="36" fill="#ffffff"/><rect x="108" y="36" width="72" height="36" fill="#ffffff"/><rect x="900" y="144" width="36" height="36" fill="#564fd7"/><rect x="1044" y="252" width="36" height="36" fill="#3678df"/><rect x="36" y="108" width="36" height="36" fill="#ffffff"/><rect x="1152" y="180" width="36" height="36" fill="#396ad2"/><rect x="936" y="72" width="36" height="36" fill="#6243d8"/><rect x="180" y="216" width="36" height="36" fill="#ffffff"/><rect x="144" y="108" width="36" height="36" fill="#ffffff"/><rect x="576" y="108" width="36" height="36" fill="#ffffff"/><rect x="1008" y="288" width="36" height="36" fill="#317fe2"/><rect x="360" y="144" width="36" height="36" fill="#ffffff"/><rect x="0" y="0" width="36" height="108" fill="#ffffff"/><rect x="720" y="252" width="36" height="36" fill="#505ce1"/><rect x="1080" y="144" width="36" height="36" fill="#485fd9"/><rect x="1008" y="36" width="36" height="36" fill="#6b45e6"/><rect x="1152" y="216" width="36" height="36" fill="#377de6"/><rect x="252" y="252" width="72" height="72" fill="#6e39db"/><rect x="972" y="288" width="36" height="36" fill="#367ee6"/><rect x="1188" y="252" width="36" height="36" fill="#2a85e0"/><rect x="1116" y="108" width="72" height="36" fill="#4f60e2"/><rect x="540" y="180" width="36" height="36" fill="#7340ea"/><rect x="936" y="252" width="36" height="36" fill="#4377f1"/><rect x="108" y="108" width="36" height="36" fill="#ffffff"/><rect x="360" y="216" width="36" height="36" fill="#7135d9"/><rect x="972" y="180" width="36" height="36" fill="#ffffff"/><rect x="612" y="288" width="36" height="36" fill="#525ce2"/><rect x="504" y="180" width="36" height="36" fill="#753de9"/><rect x="252" y="144" width="36" height="72" fill="#ffffff"/><rect x="936" y="180" width="36" height="36" fill="#ffffff"/><rect x="180" y="72" width="36" height="36" fill="#ffffff"/><rect x="828" y="180" width="36" height="36" fill="#5c59eb"/><rect x="792" y="216" width="36" height="36" fill="#575fec"/><rect x="144" y="0" width="36" height="36" fill="#ffffff"/><rect x="1116" y="144" width="36" height="36" fill="#4f6ff5"/><rect x="1044" y="0" width="36" height="72" fill="#9475f5"/><rect x="216" y="180" width="36" height="36" fill="#ffffff"/><rect x="648" y="216" width="72" height="36" fill="#6154ec"/><rect x="720" y="288" width="36" height="36" fill="#455ed3"/><rect x="792" y="0" width="72" height="36" fill="#ffffff"/><rect x="396" y="252" width="36" height="36" fill="#7446f4"/><rect x="828" y="36" width="36" height="36" fill="#ffffff"/><rect x="684" y="252" width="36" height="36" fill="#575deb"/><rect x="900" y="180" width="36" height="36" fill="#ffffff"/><rect x="216" y="252" width="36" height="36" fill="#7737e7"/><rect x="360" y="108" width="36" height="36" fill="#ffffff"/><rect x="684" y="0" width="72" height="36" fill="#ffffff"/><rect x="468" y="144" width="72" height="36" fill="#ffffff"/><rect x="828" y="72" width="36" height="36" fill="#926ee7"/><rect x="684" y="288" width="36" height="36" fill="#4c62e1"/><rect x="576" y="144" width="36" height="36" fill="#ffffff"/><rect x="324" y="0" width="36" height="36" fill="#ffffff"/><rect x="432" y="252" width="36" height="36" fill="#744bf9"/><rect x="504" y="36" width="36" height="36" fill="#ffffff"/><rect x="612" y="0" width="72" height="36" fill="#ffffff"/><rect x="360" y="0" width="36" height="36" fill="#ffffff"/><rect x="612" y="216" width="36" height="36" fill="#6b52f7"/><rect x="972" y="108" width="72" height="36" fill="#5851db"/><rect x="360" y="72" width="36" height="36" fill="#ffffff"/><rect x="72" y="288" width="36" height="36" fill="#7637e6"/><rect x="216" y="288" width="36" height="36" fill="#743ce7"/><rect x="432" y="216" width="36" height="36" fill="#7a43f7"/><rect x="720" y="144" width="36" height="36" fill="#6f48ef"/><rect x="1188" y="144" width="36" height="36" fill="#3f67d6"/><rect x="288" y="36" width="36" height="36" fill="#ffffff"/><rect x="396" y="0" width="36" height="36" fill="#ffffff"/><rect x="720" y="36" width="36" height="36" fill="#ffffff"/><rect x="36" y="288" width="36" height="36" fill="#6c33d3"/><rect x="324" y="288" width="36" height="36" fill="#6b44e5"/><rect x="1188" y="216" width="36" height="36" fill="#3078d9"/><rect x="72" y="180" width="36" height="36" fill="#ffffff"/><rect x="900" y="288" width="36" height="36" fill="#366dd2"/><rect x="216" y="108" width="36" height="72" fill="#ffffff"/><rect x="540" y="252" width="36" height="36" fill="#614ee5"/><rect x="1188" y="0" width="36" height="36" fill="#624ce3"/><rect x="576" y="0" width="36" height="36" fill="#ffffff"/><rect x="936" y="0" width="36" height="36" fill="#ffffff"/><rect x="324" y="252" width="36" height="36" fill="#7b41f6"/><rect x="180" y="252" width="36" height="72" fill="#803cf6"/><rect x="72" y="36" width="36" height="36" fill="#ffffff"/><rect x="0" y="252" width="72" height="36" fill="#ffffff"/><rect x="900" y="108" width="36" height="36" fill="#5e48d9"/><rect x="0" y="108" width="36" height="36" fill="#ffffff"/><rect x="468" y="180" width="36" height="36" fill="#7739e6"/><rect x="0" y="180" width="36" height="36" fill="#ffffff"/><rect x="1008" y="144" width="36" height="36" fill="#4c57d4"/><rect x="396" y="180" width="36" height="36" fill="#9266de"/><rect x="1008" y="252" width="36" height="36" fill="#3975e0"/><rect x="36" y="72" width="36" height="36" fill="#ffffff"/><rect x="972" y="252" width="36" height="36" fill="#417bf2"/><rect x="792" y="108" width="36" height="36" fill="#6d43e7"/><rect x="432" y="144" width="36" height="36" fill="#ffffff"/><rect x="936" y="108" width="36" height="36" fill="#604fe4"/><rect x="360" y="180" width="36" height="36" fill="#ffffff"/><rect x="1152" y="288" width="36" height="36" fill="#2385d8"/><rect x="540" y="216" width="36" height="36" fill="#6342d9"/><rect x="756" y="0" width="36" height="36" fill="#ffffff"/><rect x="252" y="0" width="36" height="36" fill="#ffffff"/><rect x="36" y="36" width="36" height="36" fill="#ffffff"/><rect x="1008" y="0" width="36" height="36" fill="#ffffff"/><rect x="252" y="36" width="36" height="36" fill="#ffffff"/><rect x="432" y="180" width="36" height="36" fill="#7f3cf5"/><rect x="540" y="144" width="36" height="36" fill="#ffffff"/></g>
  <rect x="60" y="76" width="90" height="4" fill="#E10600"/>
  <text x="60" y="140" font-family="Space Grotesk, Arial, sans-serif" font-weight="700"
        font-size="46" fill="#12141C" letter-spacing="0.5">MOTORSPORT STRATEGY LAB</text>
  <text x="60" y="172" font-family="Inter, Arial, sans-serif" font-weight="400"
        font-size="19" fill="#4A4E5C">Bayesian &amp; Monte Carlo Race Strategy Research — F1 · WEC · IMSA</text>
  <g font-family="JetBrains Mono, Consolas, monospace"><g><text x="880" y="218.0" font-size="22" font-weight="700" fill="#E10600">3</text><text x="880" y="248.0" font-size="11" fill="#4A4E5C">SERIES</text></g><g><text x="956" y="218.0" font-size="22" font-weight="700" fill="#E10600">140+</text><text x="956" y="248.0" font-size="11" fill="#4A4E5C">TESTS</text></g><g><text x="1042" y="218.0" font-size="22" font-weight="700" fill="#E10600">289</text><text x="1042" y="248.0" font-size="11" fill="#4A4E5C">RACES ANALYZED</text></g></g>
</svg>
