<svg xmlns="http://www.w3.org/2000/svg" width="1200" height="300" viewBox="0 0 1200 300" role="img"
     aria-label="Motorsport Strategy Lab -- Bayesian and Monte Carlo race strategy research across F1, WEC and IMSA">
  <title>Motorsport Strategy Lab</title>
  <rect width="1200" height="300" fill="#ffffff"/>
  <g><rect x="1066" y="260" width="26" height="26" fill="#e2f4ff"/><rect x="520" y="260" width="52" height="26" fill="#7c5bef"/><rect x="104" y="182" width="26" height="52" fill="#d5d1e1"/><rect x="520" y="182" width="26" height="26" fill="#f6f3fb"/><rect x="1066" y="104" width="52" height="52" fill="#8b8aee"/><rect x="78" y="182" width="26" height="26" fill="#f2f1f5"/><rect x="1144" y="130" width="52" height="26" fill="#a7b3ff"/><rect x="286" y="78" width="78" height="52" fill="#ffffff"/><rect x="910" y="130" width="26" height="26" fill="#ad9cf1"/><rect x="806" y="260" width="52" height="52" fill="#84a0f7"/><rect x="832" y="78" width="78" height="26" fill="#7859e9"/><rect x="572" y="26" width="26" height="52" fill="#e6dbf8"/><rect x="572" y="208" width="52" height="52" fill="#b292fb"/><rect x="182" y="130" width="52" height="52" fill="#ffffff"/><rect x="52" y="0" width="26" height="26" fill="#4a456e"/><rect x="1040" y="52" width="26" height="26" fill="#7c7ef1"/><rect x="754" y="286" width="52" height="26" fill="#778ce9"/><rect x="1066" y="182" width="52" height="52" fill="#ffffff"/><rect x="1118" y="234" width="26" height="26" fill="#ffffff"/><rect x="1092" y="260" width="78" height="26" fill="#e2f7ff"/><rect x="182" y="78" width="26" height="52" fill="#ffffff"/><rect x="416" y="208" width="52" height="78" fill="#9760f6"/><rect x="26" y="104" width="52" height="52" fill="#ffffff"/><rect x="156" y="26" width="52" height="52" fill="#dcd7e7"/><rect x="910" y="104" width="78" height="26" fill="#735ddf"/><rect x="1066" y="26" width="26" height="52" fill="#858eff"/><rect x="520" y="104" width="26" height="26" fill="#ffffff"/><rect x="1066" y="78" width="52" height="26" fill="#8083fa"/><rect x="208" y="52" width="26" height="26" fill="#f7f6fa"/><rect x="988" y="78" width="26" height="52" fill="#7466e1"/><rect x="1170" y="260" width="52" height="52" fill="#8edeff"/><rect x="910" y="182" width="52" height="52" fill="#ffffff"/><rect x="884" y="0" width="78" height="52" fill="#816ff9"/><rect x="1092" y="156" width="26" height="26" fill="#f5f6ff"/><rect x="676" y="286" width="52" height="26" fill="#7e86f4"/><rect x="338" y="52" width="78" height="26" fill="#f8f6fc"/><rect x="260" y="52" width="26" height="26" fill="#f7f5fa"/><rect x="910" y="78" width="52" height="26" fill="#7560e3"/><rect x="832" y="234" width="26" height="26" fill="#d2d6fe"/><rect x="208" y="26" width="78" height="26" fill="#b8add2"/><rect x="1144" y="286" width="26" height="26" fill="#91cff4"/><rect x="546" y="156" width="26" height="52" fill="#ffffff"/><rect x="312" y="182" width="52" height="52" fill="#dbd3ec"/><rect x="754" y="0" width="52" height="26" fill="#7d4ef2"/><rect x="416" y="0" width="78" height="52" fill="#a084d6"/><rect x="624" y="286" width="26" height="26" fill="#7d7af2"/><rect x="26" y="26" width="26" height="26" fill="#ada9c1"/><rect x="156" y="104" width="26" height="52" fill="#ffffff"/><rect x="52" y="260" width="78" height="52" fill="#582cb3"/><rect x="1092" y="286" width="26" height="26" fill="#9ee1ff"/><rect x="286" y="52" width="52" height="26" fill="#f8f6fb"/><rect x="182" y="0" width="52" height="26" fill="#5d4d8e"/><rect x="208" y="260" width="26" height="52" fill="#6d34d7"/><rect x="832" y="52" width="78" height="26" fill="#8266fc"/><rect x="1170" y="208" width="52" height="26" fill="#afdeff"/><rect x="208" y="104" width="52" height="26" fill="#ffffff"/><rect x="702" y="208" width="26" height="26" fill="#7e60e4"/><rect x="806" y="26" width="26" height="26" fill="#7655e2"/><rect x="494" y="104" width="26" height="78" fill="#ffffff"/><rect x="962" y="156" width="52" height="78" fill="#ffffff"/><rect x="1118" y="156" width="78" height="52" fill="#fdfefe"/><rect x="104" y="156" width="26" height="26" fill="#ffffff"/><rect x="1118" y="78" width="52" height="52" fill="#7981eb"/><rect x="286" y="286" width="52" height="26" fill="#813cf7"/><rect x="936" y="130" width="26" height="26" fill="#b3a3ff"/><rect x="130" y="208" width="26" height="26" fill="#aea4c7"/><rect x="468" y="208" width="78" height="52" fill="#a882e8"/><rect x="494" y="78" width="26" height="26" fill="#ffffff"/><rect x="416" y="130" width="52" height="78" fill="#ffffff"/><rect x="1040" y="260" width="26" height="26" fill="#e1f1ff"/><rect x="286" y="234" width="26" height="26" fill="#8157d0"/><rect x="286" y="0" width="52" height="52" fill="#917fbd"/><rect x="754" y="52" width="52" height="78" fill="#764edd"/><rect x="728" y="208" width="78" height="52" fill="#8173f9"/><rect x="598" y="104" width="52" height="26" fill="#ffffff"/><rect x="910" y="52" width="52" height="26" fill="#7565e1"/><rect x="988" y="260" width="52" height="26" fill="#dfedfd"/><rect x="624" y="130" width="52" height="78" fill="#fdfdfe"/><rect x="1040" y="78" width="26" height="26" fill="#7470e1"/><rect x="78" y="130" width="26" height="26" fill="#ffffff"/><rect x="806" y="182" width="26" height="26" fill="#8f74fe"/><rect x="1040" y="234" width="78" height="26" fill="#ffffff"/><rect x="702" y="104" width="52" height="52" fill="#e0d2fa"/><rect x="0" y="52" width="26" height="26" fill="#f6f5f8"/><rect x="364" y="78" width="26" height="26" fill="#ffffff"/><rect x="546" y="0" width="52" height="26" fill="#8c5fde"/><rect x="442" y="78" width="52" height="26" fill="#ffffff"/><rect x="52" y="182" width="26" height="26" fill="#f2f1f5"/><rect x="260" y="208" width="26" height="78" fill="#7853c2"/><rect x="1118" y="286" width="26" height="26" fill="#9bdcff"/><rect x="598" y="52" width="52" height="52" fill="#ffffff"/><rect x="234" y="234" width="26" height="26" fill="#7752c1"/><rect x="1040" y="182" width="26" height="52" fill="#ffffff"/><rect x="390" y="182" width="26" height="78" fill="#bfabe5"/><rect x="962" y="52" width="52" height="26" fill="#7d75f3"/><rect x="1196" y="182" width="26" height="26" fill="#91c2ff"/><rect x="702" y="52" width="26" height="26" fill="#eae2fc"/><rect x="1092" y="26" width="26" height="26" fill="#7581e2"/><rect x="0" y="286" width="52" height="26" fill="#4d279d"/><rect x="1118" y="130" width="26" height="26" fill="#afb4f6"/><rect x="1040" y="156" width="26" height="26" fill="#f5f5fe"/><rect x="182" y="234" width="52" height="26" fill="#7251b7"/><rect x="884" y="286" width="26" height="26" fill="#9abeff"/><rect x="364" y="182" width="26" height="52" fill="#ded4f1"/><rect x="78" y="104" width="78" height="26" fill="#ffffff"/><rect x="676" y="52" width="26" height="26" fill="#f9f7fe"/><rect x="104" y="26" width="26" height="78" fill="#f6f5f9"/><rect x="1144" y="208" width="26" height="52" fill="#fefeff"/><rect x="962" y="78" width="26" height="26" fill="#8271fb"/><rect x="1040" y="26" width="26" height="26" fill="#7a80ee"/><rect x="650" y="104" width="52" height="26" fill="#ffffff"/><rect x="624" y="26" width="26" height="26" fill="#cbb4f1"/><rect x="806" y="0" width="52" height="26" fill="#855dff"/><rect x="858" y="208" width="26" height="26" fill="#ffffff"/><rect x="728" y="52" width="26" height="26" fill="#bea6f9"/><rect x="338" y="234" width="26" height="26" fill="#8558d8"/><rect x="962" y="130" width="26" height="26" fill="#aca1ef"/><rect x="806" y="78" width="26" height="26" fill="#7e55f3"/><rect x="1014" y="130" width="26" height="26" fill="#aba5ef"/><rect x="936" y="286" width="52" height="26" fill="#95c0f6"/><rect x="312" y="234" width="26" height="26" fill="#8659d9"/><rect x="650" y="286" width="26" height="26" fill="#787aea"/><rect x="1066" y="0" width="26" height="26" fill="#7c84f1"/><rect x="26" y="182" width="26" height="26" fill="#f2f1f5"/><rect x="1014" y="234" width="26" height="26" fill="#ffffff"/><rect x="26" y="234" width="26" height="26" fill="#5e4a97"/><rect x="182" y="208" width="26" height="26" fill="#b4a7d5"/><rect x="624" y="0" width="52" height="26" fill="#8c5fdb"/><rect x="572" y="130" width="52" height="52" fill="#ffffff"/><rect x="286" y="208" width="26" height="26" fill="#bbaae0"/><rect x="234" y="182" width="26" height="52" fill="#d8d2e7"/><rect x="702" y="156" width="26" height="26" fill="#ddcdfb"/><rect x="26" y="260" width="26" height="26" fill="#472596"/><rect x="234" y="286" width="26" height="26" fill="#7035d9"/><rect x="0" y="156" width="26" height="78" fill="#f2f1f5"/><rect x="130" y="286" width="78" height="26" fill="#6832cd"/><rect x="1014" y="286" width="52" height="26" fill="#91c6f1"/><rect x="728" y="286" width="26" height="26" fill="#7887ea"/><rect x="156" y="78" width="26" height="26" fill="#ffffff"/><rect x="1014" y="78" width="26" height="52" fill="#8378fd"/><rect x="494" y="52" width="26" height="26" fill="#f8f6fd"/><rect x="260" y="156" width="26" height="52" fill="#ffffff"/><rect x="858" y="156" width="52" height="26" fill="#f4f2fd"/><rect x="0" y="78" width="26" height="26" fill="#ffffff"/><rect x="468" y="130" width="26" height="52" fill="#ffffff"/><rect x="208" y="182" width="26" height="52" fill="#d8d2e8"/><rect x="1196" y="130" width="26" height="26" fill="#7d93f3"/><rect x="572" y="260" width="26" height="26" fill="#7a61ec"/><rect x="1040" y="130" width="26" height="26" fill="#b5b1ff"/><rect x="130" y="0" width="26" height="26" fill="#54497f"/><rect x="676" y="234" width="26" height="26" fill="#846efc"/><rect x="234" y="130" width="52" height="26" fill="#ffffff"/><rect x="780" y="26" width="26" height="26" fill="#865cff"/><rect x="52" y="234" width="52" height="26" fill="#634b9f"/><rect x="1014" y="182" width="26" height="26" fill="#ffffff"/><rect x="442" y="286" width="26" height="26" fill="#7552e2"/><rect x="1118" y="208" width="26" height="26" fill="#ffffff"/><rect x="234" y="52" width="26" height="52" fill="#ffffff"/><rect x="936" y="234" width="52" height="26" fill="#ffffff"/><rect x="156" y="234" width="26" height="26" fill="#684da5"/><rect x="624" y="208" width="26" height="52" fill="#ad94f3"/><rect x="442" y="52" width="26" height="26" fill="#f8f6fd"/><rect x="26" y="208" width="26" height="26" fill="#aaa3c3"/><rect x="286" y="156" width="52" height="26" fill="#ffffff"/><rect x="988" y="26" width="52" height="26" fill="#7978ec"/><rect x="156" y="156" width="26" height="78" fill="#f3f2f7"/><rect x="962" y="260" width="26" height="26" fill="#dfebfd"/><rect x="286" y="130" width="26" height="26" fill="#ffffff"/><rect x="546" y="52" width="26" height="26" fill="#f8f6fc"/><rect x="702" y="26" width="78" height="26" fill="#9b7aec"/><rect x="338" y="26" width="52" height="26" fill="#c0b0e1"/><rect x="650" y="208" width="26" height="26" fill="#bea5ff"/><rect x="442" y="104" width="26" height="26" fill="#ffffff"/><rect x="390" y="156" width="26" height="26" fill="#ffffff"/><rect x="78" y="26" width="26" height="26" fill="#b1abc8"/><rect x="754" y="260" width="52" height="26" fill="#7884e8"/><rect x="338" y="0" width="26" height="26" fill="#6e54aa"/><rect x="104" y="0" width="26" height="26" fill="#504877"/><rect x="130" y="130" width="26" height="26" fill="#ffffff"/><rect x="390" y="26" width="26" height="26" fill="#c1b1e2"/><rect x="858" y="260" width="26" height="52" fill="#b8cdfd"/><rect x="0" y="104" width="26" height="26" fill="#ffffff"/><rect x="130" y="182" width="26" height="26" fill="#f3f2f6"/><rect x="26" y="0" width="26" height="26" fill="#49466f"/><rect x="650" y="234" width="26" height="52" fill="#8270f7"/><rect x="832" y="26" width="26" height="26" fill="#7559e2"/><rect x="1170" y="26" width="26" height="26" fill="#7c96f2"/><rect x="208" y="78" width="26" height="26" fill="#ffffff"/><rect x="1196" y="234" width="26" height="26" fill="#87ccf4"/><rect x="312" y="260" width="78" height="26" fill="#7536e3"/><rect x="702" y="260" width="52" height="26" fill="#8588ff"/><rect x="1196" y="156" width="26" height="26" fill="#85a4f8"/><rect x="26" y="78" width="26" height="26" fill="#ffffff"/><rect x="1014" y="52" width="26" height="26" fill="#8683ff"/><rect x="1040" y="0" width="26" height="26" fill="#7e82f6"/><rect x="858" y="130" width="52" height="26" fill="#ab97ec"/><rect x="1118" y="52" width="78" height="26" fill="#7586e4"/><rect x="1170" y="78" width="52" height="52" fill="#7585e4"/><rect x="468" y="286" width="26" height="26" fill="#805ef7"/><rect x="702" y="182" width="78" height="26" fill="#956ef8"/><rect x="338" y="156" width="52" height="26" fill="#ffffff"/><rect x="884" y="234" width="26" height="26" fill="#ffffff"/><rect x="390" y="104" width="26" height="52" fill="#ffffff"/><rect x="702" y="0" width="26" height="26" fill="#9460f5"/><rect x="468" y="52" width="26" height="26" fill="#f8f6fd"/><rect x="598" y="260" width="26" height="52" fill="#8577ff"/><rect x="936" y="156" width="26" height="26" fill="#f2f0fd"/><rect x="156" y="0" width="26" height="26" fill="#594c87"/><rect x="364" y="130" width="26" height="26" fill="#ffffff"/><rect x="468" y="104" width="26" height="26" fill="#ffffff"/><rect x="806" y="234" width="26" height="26" fill="#868bed"/><rect x="676" y="156" width="26" height="52" fill="#d4c0f8"/><rect x="260" y="104" width="26" height="26" fill="#ffffff"/><rect x="910" y="286" width="26" height="26" fill="#9cc6ff"/><rect x="910" y="156" width="26" height="26" fill="#f5f3ff"/><rect x="988" y="234" width="26" height="26" fill="#ffffff"/><rect x="728" y="0" width="26" height="26" fill="#8951fd"/><rect x="806" y="130" width="52" height="52" fill="#946dfc"/><rect x="858" y="104" width="26" height="26" fill="#845dfe"/><rect x="0" y="234" width="26" height="52" fill="#432b86"/><rect x="104" y="234" width="52" height="26" fill="#684ea8"/><rect x="676" y="208" width="26" height="26" fill="#9376e9"/><rect x="52" y="78" width="26" height="26" fill="#ffffff"/><rect x="130" y="52" width="26" height="52" fill="#ffffff"/><rect x="416" y="52" width="26" height="78" fill="#ffffff"/><rect x="910" y="234" width="26" height="26" fill="#ffffff"/><rect x="52" y="52" width="52" height="26" fill="#f6f5f8"/><rect x="52" y="26" width="26" height="26" fill="#aea9c1"/><rect x="78" y="0" width="26" height="26" fill="#4d4774"/><rect x="130" y="260" width="52" height="26" fill="#5128a2"/><rect x="988" y="130" width="26" height="26" fill="#ada4f0"/><rect x="1170" y="234" width="26" height="26" fill="#cdebfb"/><rect x="1196" y="52" width="26" height="26" fill="#7d97f4"/><rect x="806" y="104" width="52" height="26" fill="#7c51f0"/><rect x="650" y="52" width="26" height="26" fill="#f9f7fe"/><rect x="260" y="0" width="26" height="26" fill="#6852a4"/><rect x="468" y="260" width="52" height="26" fill="#7f53f5"/><rect x="832" y="208" width="26" height="26" fill="#d4d1ff"/><rect x="104" y="130" width="26" height="26" fill="#ffffff"/><rect x="650" y="78" width="26" height="26" fill="#ffffff"/><rect x="572" y="78" width="26" height="26" fill="#ffffff"/><rect x="546" y="104" width="26" height="26" fill="#ffffff"/><rect x="1196" y="26" width="26" height="26" fill="#7693e6"/><rect x="728" y="78" width="26" height="26" fill="#c8b0fc"/><rect x="546" y="234" width="26" height="26" fill="#936cf1"/><rect x="182" y="182" width="26" height="26" fill="#f3f2f7"/><rect x="572" y="182" width="26" height="26" fill="#f7f3fe"/><rect x="806" y="208" width="26" height="26" fill="#8c80f6"/><rect x="754" y="130" width="26" height="52" fill="#9060f5"/><rect x="1066" y="156" width="26" height="26" fill="#f5f6ff"/><rect x="0" y="0" width="26" height="52" fill="#7a7596"/><rect x="520" y="78" width="52" height="26" fill="#ffffff"/><rect x="780" y="156" width="26" height="26" fill="#8051f8"/><rect x="806" y="52" width="26" height="26" fill="#7756e6"/><rect x="780" y="182" width="26" height="26" fill="#7352dd"/><rect x="1066" y="286" width="26" height="26" fill="#97d4fb"/><rect x="520" y="130" width="52" height="26" fill="#ffffff"/><rect x="260" y="78" width="26" height="26" fill="#ffffff"/><rect x="884" y="260" width="26" height="26" fill="#dfe7fc"/><rect x="884" y="104" width="26" height="26" fill="#8360fd"/><rect x="676" y="0" width="26" height="52" fill="#b28ff3"/><rect x="260" y="286" width="26" height="26" fill="#7336df"/><rect x="650" y="26" width="26" height="26" fill="#cbb6f2"/><rect x="780" y="130" width="26" height="26" fill="#7444e0"/><rect x="572" y="104" width="26" height="26" fill="#ffffff"/><rect x="364" y="0" width="26" height="26" fill="#6f53ab"/><rect x="130" y="156" width="26" height="26" fill="#ffffff"/><rect x="1170" y="0" width="52" height="26" fill="#7a96ef"/><rect x="494" y="182" width="26" height="26" fill="#f6f3fb"/><rect x="312" y="130" width="26" height="26" fill="#ffffff"/><rect x="234" y="0" width="26" height="26" fill="#5f4d90"/><rect x="1092" y="52" width="26" height="26" fill="#7e88f5"/><rect x="1092" y="0" width="26" height="26" fill="#8895ff"/><rect x="546" y="208" width="26" height="26" fill="#ceb1ff"/><rect x="1014" y="208" width="26" height="26" fill="#ffffff"/><rect x="26" y="52" width="26" height="26" fill="#f6f5f8"/><rect x="52" y="208" width="26" height="26" fill="#aaa3c2"/><rect x="598" y="182" width="26" height="26" fill="#f7f3fe"/><rect x="286" y="260" width="26" height="26" fill="#7235dd"/><rect x="52" y="156" width="26" height="26" fill="#ffffff"/><rect x="1144" y="0" width="26" height="26" fill="#869dff"/><rect x="884" y="208" width="26" height="26" fill="#ffffff"/><rect x="234" y="156" width="26" height="26" fill="#ffffff"/><rect x="936" y="260" width="26" height="26" fill="#dce7fb"/><rect x="910" y="260" width="26" height="26" fill="#e1ecff"/><rect x="520" y="52" width="26" height="26" fill="#f9f6fd"/><rect x="988" y="0" width="52" height="26" fill="#8580ff"/><rect x="858" y="0" width="26" height="26" fill="#7f60f5"/><rect x="702" y="234" width="26" height="26" fill="#8473ff"/><rect x="572" y="286" width="26" height="26" fill="#7c6fef"/><rect x="364" y="104" width="26" height="26" fill="#ffffff"/><rect x="494" y="0" width="26" height="52" fill="#a787e3"/><rect x="520" y="286" width="26" height="26" fill="#7d67f2"/><rect x="1014" y="156" width="26" height="26" fill="#f4f3fe"/><rect x="546" y="26" width="26" height="26" fill="#c7b2eb"/><rect x="182" y="260" width="26" height="26" fill="#602fc1"/><rect x="520" y="0" width="26" height="26" fill="#825bcc"/><rect x="1118" y="26" width="52" height="26" fill="#8298fd"/><rect x="390" y="78" width="26" height="26" fill="#ffffff"/><rect x="390" y="286" width="52" height="26" fill="#7b4eed"/><rect x="78" y="78" width="26" height="26" fill="#ffffff"/><rect x="494" y="286" width="26" height="26" fill="#7e62f3"/><rect x="676" y="130" width="26" height="26" fill="#ffffff"/><rect x="78" y="208" width="26" height="26" fill="#aca4c6"/><rect x="962" y="26" width="26" height="26" fill="#8078f9"/><rect x="468" y="182" width="26" height="26" fill="#f6f3fc"/><rect x="598" y="0" width="26" height="26" fill="#8c5fde"/><rect x="364" y="286" width="26" height="26" fill="#7846e7"/><rect x="858" y="182" width="26" height="26" fill="#ffffff"/><rect x="1040" y="104" width="26" height="26" fill="#7e77f4"/><rect x="676" y="260" width="26" height="26" fill="#7c78f2"/><rect x="390" y="260" width="26" height="26" fill="#8442fc"/><rect x="0" y="130" width="26" height="26" fill="#ffffff"/><rect x="520" y="26" width="26" height="26" fill="#c9b4f1"/><rect x="702" y="78" width="26" height="26" fill="#f4f0fc"/><rect x="130" y="26" width="26" height="26" fill="#b4accd"/><rect x="624" y="260" width="26" height="26" fill="#8776ff"/><rect x="234" y="260" width="26" height="26" fill="#6832cc"/><rect x="676" y="78" width="26" height="26" fill="#ffffff"/><rect x="546" y="286" width="26" height="26" fill="#806ef8"/><rect x="26" y="156" width="26" height="26" fill="#ffffff"/><rect x="962" y="0" width="26" height="26" fill="#8478ff"/><rect x="728" y="156" width="26" height="26" fill="#af91ee"/><rect x="286" y="182" width="26" height="26" fill="#f4f2f9"/><rect x="858" y="26" width="26" height="26" fill="#735ce0"/><rect x="884" y="182" width="26" height="26" fill="#ffffff"/><rect x="338" y="286" width="26" height="26" fill="#8044f6"/><rect x="338" y="130" width="26" height="26" fill="#ffffff"/><rect x="832" y="182" width="26" height="26" fill="#d0c7f8"/><rect x="858" y="234" width="26" height="26" fill="#fefefe"/><rect x="78" y="156" width="26" height="26" fill="#ffffff"/><rect x="1118" y="0" width="26" height="26" fill="#889aff"/><rect x="390" y="0" width="26" height="26" fill="#7455b4"/><rect x="598" y="26" width="26" height="26" fill="#cbb4f1"/><rect x="364" y="234" width="26" height="26" fill="#8c5ce5"/><rect x="988" y="286" width="26" height="26" fill="#93c3f2"/><rect x="520" y="156" width="26" height="26" fill="#ffffff"/></g>
  <rect x="60" y="76" width="90" height="4" fill="#E10600"/>
  <text x="60" y="140" font-family="Space Grotesk, Arial, sans-serif" font-weight="700"
        font-size="46" fill="#12141C" letter-spacing="0.5">MOTORSPORT STRATEGY LAB</text>
  <text x="60" y="172" font-family="Inter, Arial, sans-serif" font-weight="400"
        font-size="19" fill="#4A4E5C">Bayesian &amp; Monte Carlo Race Strategy Research — F1 · WEC · IMSA</text>
  <g font-family="JetBrains Mono, Consolas, monospace"><g><text x="887" y="218.0" font-size="22" font-weight="700" fill="#E10600">3</text><text x="887" y="248.0" font-size="11" fill="#4A4E5C">SERIES</text></g><g><text x="963" y="218.0" font-size="22" font-weight="700" fill="#E10600">140+</text><text x="963" y="248.0" font-size="11" fill="#4A4E5C">TESTS</text></g><g><text x="1049" y="218.0" font-size="22" font-weight="700" fill="#E10600">5</text><text x="1049" y="248.0" font-size="11" fill="#4A4E5C">AUDITED RACES</text></g></g>
</svg>
