<svg xmlns="http://www.w3.org/2000/svg" width="1200" height="300" viewBox="0 0 1200 300" role="img"
     aria-label="Motorsport Strategy Lab -- Bayesian and Monte Carlo race strategy research across F1, WEC and IMSA">
  <title>Motorsport Strategy Lab</title>
  <rect width="1200" height="300" fill="#ffffff"/>
  <g><rect x="1066" y="260" width="26" height="26" fill="#e1ddeb"/><rect x="520" y="260" width="52" height="26" fill="#a88bdf"/><rect x="104" y="182" width="26" height="52" fill="#ddd9f9"/><rect x="520" y="182" width="26" height="26" fill="#7946d4"/><rect x="1066" y="104" width="52" height="52" fill="#c6c8d1"/><rect x="78" y="182" width="26" height="26" fill="#dfdef7"/><rect x="1144" y="130" width="52" height="26" fill="#dadbe0"/><rect x="286" y="78" width="78" height="52" fill="#ffffff"/><rect x="910" y="130" width="26" height="26" fill="#717689"/><rect x="806" y="260" width="52" height="52" fill="#beb1da"/><rect x="832" y="78" width="78" height="26" fill="#7187a3"/><rect x="572" y="26" width="26" height="52" fill="#6096c7"/><rect x="572" y="208" width="52" height="52" fill="#8660d3"/><rect x="182" y="130" width="52" height="52" fill="#ffffff"/><rect x="52" y="0" width="26" height="26" fill="#dfebf9"/><rect x="1040" y="52" width="26" height="26" fill="#ccd3dd"/><rect x="754" y="286" width="52" height="26" fill="#c0b4db"/><rect x="1066" y="182" width="52" height="52" fill="#ffffff"/><rect x="1118" y="234" width="26" height="26" fill="#ffffff"/><rect x="1092" y="260" width="78" height="26" fill="#e0ddea"/><rect x="182" y="78" width="26" height="52" fill="#ffffff"/><rect x="416" y="208" width="52" height="78" fill="#ae85f5"/><rect x="26" y="104" width="52" height="52" fill="#ffffff"/><rect x="156" y="26" width="52" height="52" fill="#cddef4"/><rect x="910" y="104" width="78" height="26" fill="#858fa2"/><rect x="1066" y="26" width="26" height="52" fill="#dbe1e9"/><rect x="520" y="104" width="26" height="26" fill="#ffffff"/><rect x="1066" y="78" width="52" height="26" fill="#d0d5dd"/><rect x="208" y="52" width="26" height="26" fill="#bbd7f9"/><rect x="988" y="78" width="26" height="52" fill="#a3acbb"/><rect x="1170" y="260" width="52" height="52" fill="#e0ddea"/><rect x="910" y="182" width="52" height="52" fill="#ffffff"/><rect x="884" y="0" width="78" height="52" fill="#bacadb"/><rect x="1092" y="156" width="26" height="26" fill="#cdcdd6"/><rect x="676" y="286" width="52" height="26" fill="#bbaade"/><rect x="338" y="52" width="78" height="26" fill="#7fbbef"/><rect x="260" y="52" width="26" height="26" fill="#a5c5ea"/><rect x="910" y="78" width="52" height="26" fill="#8c9bb1"/><rect x="832" y="234" width="26" height="26" fill="#9f8fc5"/><rect x="208" y="26" width="78" height="26" fill="#bfd8f1"/><rect x="1144" y="286" width="26" height="26" fill="#e0dde9"/><rect x="546" y="156" width="26" height="52" fill="#f7f3fd"/><rect x="312" y="182" width="52" height="52" fill="#a38bef"/><rect x="754" y="0" width="52" height="26" fill="#a2bcd6"/><rect x="416" y="0" width="78" height="52" fill="#8fbde4"/><rect x="624" y="286" width="26" height="26" fill="#baa6e0"/><rect x="26" y="26" width="26" height="26" fill="#e0ebfa"/><rect x="156" y="104" width="26" height="52" fill="#ffffff"/><rect x="52" y="260" width="78" height="52" fill="#eae3fe"/><rect x="1092" y="286" width="26" height="26" fill="#e1ddec"/><rect x="286" y="52" width="52" height="26" fill="#98c6f5"/><rect x="182" y="0" width="52" height="26" fill="#dbebf9"/><rect x="208" y="260" width="26" height="52" fill="#e7dcfd"/><rect x="832" y="52" width="78" height="26" fill="#86a0bd"/><rect x="1170" y="208" width="52" height="26" fill="#dedce6"/><rect x="208" y="104" width="52" height="26" fill="#ffffff"/><rect x="702" y="208" width="26" height="26" fill="#6f55aa"/><rect x="806" y="26" width="26" height="26" fill="#8ea8c3"/><rect x="494" y="104" width="26" height="78" fill="#ffffff"/><rect x="962" y="156" width="52" height="78" fill="#ffffff"/><rect x="1118" y="156" width="78" height="52" fill="#dbdbe2"/><rect x="104" y="156" width="26" height="26" fill="#ffffff"/><rect x="1118" y="78" width="52" height="52" fill="#dadde3"/><rect x="286" y="286" width="52" height="26" fill="#dfcffb"/><rect x="936" y="130" width="26" height="26" fill="#7f8396"/><rect x="130" y="208" width="26" height="26" fill="#d9d4f5"/><rect x="468" y="208" width="78" height="52" fill="#8f66d5"/><rect x="494" y="78" width="26" height="26" fill="#ffffff"/><rect x="416" y="130" width="52" height="78" fill="#ffffff"/><rect x="1040" y="260" width="26" height="26" fill="#e1ddeb"/><rect x="286" y="234" width="26" height="26" fill="#c7aefb"/><rect x="286" y="0" width="52" height="52" fill="#b4d4f0"/><rect x="754" y="52" width="52" height="78" fill="#4f7096"/><rect x="728" y="208" width="78" height="52" fill="#846eb9"/><rect x="598" y="104" width="52" height="26" fill="#ffffff"/><rect x="910" y="52" width="52" height="26" fill="#9eaec2"/><rect x="988" y="260" width="52" height="26" fill="#dcd7e7"/><rect x="624" y="130" width="52" height="78" fill="#9f90c3"/><rect x="1040" y="78" width="26" height="26" fill="#c0c6d1"/><rect x="78" y="130" width="26" height="26" fill="#ffffff"/><rect x="806" y="182" width="26" height="26" fill="#6a5b98"/><rect x="1040" y="234" width="78" height="26" fill="#ffffff"/><rect x="702" y="104" width="52" height="52" fill="#27436c"/><rect x="0" y="52" width="26" height="26" fill="#e1eafa"/><rect x="364" y="78" width="26" height="26" fill="#ffffff"/><rect x="546" y="0" width="52" height="26" fill="#91b9dd"/><rect x="442" y="78" width="52" height="26" fill="#ffffff"/><rect x="52" y="182" width="26" height="26" fill="#e5e4f9"/><rect x="260" y="208" width="26" height="78" fill="#c9b5f5"/><rect x="1118" y="286" width="26" height="26" fill="#e1ddeb"/><rect x="598" y="52" width="52" height="52" fill="#ffffff"/><rect x="234" y="234" width="26" height="26" fill="#cfbef9"/><rect x="1040" y="182" width="26" height="52" fill="#ffffff"/><rect x="390" y="182" width="26" height="78" fill="#a27aef"/><rect x="962" y="52" width="52" height="26" fill="#b3bfcf"/><rect x="1196" y="182" width="26" height="26" fill="#dcdbe4"/><rect x="702" y="52" width="26" height="26" fill="#5a87b5"/><rect x="1092" y="26" width="26" height="26" fill="#dbe0e7"/><rect x="0" y="286" width="52" height="26" fill="#e9e2fa"/><rect x="1118" y="130" width="26" height="26" fill="#d5d6db"/><rect x="1040" y="156" width="26" height="26" fill="#b6b6c3"/><rect x="182" y="234" width="52" height="26" fill="#d7cafa"/><rect x="884" y="286" width="26" height="26" fill="#d4cde7"/><rect x="364" y="182" width="26" height="52" fill="#a180f7"/><rect x="78" y="104" width="78" height="26" fill="#ffffff"/><rect x="676" y="52" width="26" height="26" fill="#5689b9"/><rect x="104" y="26" width="26" height="78" fill="#dde9fb"/><rect x="1144" y="208" width="26" height="52" fill="#e5e3ec"/><rect x="962" y="78" width="26" height="26" fill="#9eabbe"/><rect x="1040" y="26" width="26" height="26" fill="#dae0e8"/><rect x="650" y="104" width="52" height="26" fill="#ffffff"/><rect x="624" y="26" width="26" height="26" fill="#6e9ac2"/><rect x="806" y="0" width="52" height="26" fill="#aec4db"/><rect x="858" y="208" width="26" height="26" fill="#f3f2f7"/><rect x="728" y="52" width="26" height="26" fill="#5f89b5"/><rect x="338" y="234" width="26" height="26" fill="#bd9df7"/><rect x="962" y="130" width="26" height="26" fill="#8b8f9e"/><rect x="806" y="78" width="26" height="26" fill="#5e7b9f"/><rect x="1014" y="130" width="26" height="26" fill="#a6a8b4"/><rect x="936" y="286" width="52" height="26" fill="#e0dbeb"/><rect x="312" y="234" width="26" height="26" fill="#c3a6fc"/><rect x="650" y="286" width="26" height="26" fill="#b8a7dc"/><rect x="1066" y="0" width="26" height="26" fill="#dbe2ea"/><rect x="26" y="182" width="26" height="26" fill="#e5e4f9"/><rect x="1014" y="234" width="26" height="26" fill="#ffffff"/><rect x="26" y="234" width="26" height="26" fill="#e9e4fe"/><rect x="182" y="208" width="26" height="26" fill="#d0c6fd"/><rect x="624" y="0" width="52" height="26" fill="#90b1cf"/><rect x="572" y="130" width="52" height="52" fill="#ffffff"/><rect x="286" y="208" width="26" height="26" fill="#b8a2fb"/><rect x="234" y="182" width="26" height="52" fill="#b8acef"/><rect x="702" y="156" width="26" height="26" fill="#3a2c70"/><rect x="26" y="260" width="26" height="26" fill="#eae3fd"/><rect x="234" y="286" width="26" height="26" fill="#e8ddfa"/><rect x="0" y="156" width="26" height="78" fill="#e7e6fd"/><rect x="130" y="286" width="78" height="26" fill="#eae2fc"/><rect x="1014" y="286" width="52" height="26" fill="#e1ddeb"/><rect x="728" y="286" width="26" height="26" fill="#bcaedb"/><rect x="156" y="78" width="26" height="26" fill="#ffffff"/><rect x="1014" y="78" width="26" height="52" fill="#b0b8c6"/><rect x="494" y="52" width="26" height="26" fill="#5b9ed7"/><rect x="260" y="156" width="26" height="52" fill="#f6f5fd"/><rect x="858" y="156" width="52" height="26" fill="#686584"/><rect x="0" y="78" width="26" height="26" fill="#ffffff"/><rect x="468" y="130" width="26" height="52" fill="#ffffff"/><rect x="208" y="182" width="26" height="52" fill="#c3b8f8"/><rect x="1196" y="130" width="26" height="26" fill="#dadbdf"/><rect x="572" y="260" width="26" height="26" fill="#a388d8"/><rect x="1040" y="130" width="26" height="26" fill="#b3b5c0"/><rect x="130" y="0" width="26" height="26" fill="#deecf9"/><rect x="676" y="234" width="26" height="26" fill="#8c6fc8"/><rect x="234" y="130" width="52" height="26" fill="#ffffff"/><rect x="780" y="26" width="26" height="26" fill="#88a9cb"/><rect x="52" y="234" width="52" height="26" fill="#e9e4fd"/><rect x="1014" y="182" width="26" height="26" fill="#ffffff"/><rect x="442" y="286" width="26" height="26" fill="#c5b2ea"/><rect x="1118" y="208" width="26" height="26" fill="#ffffff"/><rect x="234" y="52" width="26" height="52" fill="#ffffff"/><rect x="936" y="234" width="52" height="26" fill="#ffffff"/><rect x="156" y="234" width="26" height="26" fill="#ddd5f7"/><rect x="624" y="208" width="26" height="52" fill="#7e5cc2"/><rect x="442" y="52" width="26" height="26" fill="#68aee8"/><rect x="26" y="208" width="26" height="26" fill="#e8e5fd"/><rect x="286" y="156" width="52" height="26" fill="#ffffff"/><rect x="988" y="26" width="52" height="26" fill="#ced6e1"/><rect x="156" y="156" width="26" height="78" fill="#cbc7f5"/><rect x="962" y="260" width="26" height="26" fill="#d2cce2"/><rect x="286" y="130" width="26" height="26" fill="#ffffff"/><rect x="546" y="52" width="26" height="26" fill="#528dc2"/><rect x="702" y="26" width="78" height="26" fill="#7c9fc1"/><rect x="338" y="26" width="52" height="26" fill="#99c9f1"/><rect x="650" y="208" width="26" height="26" fill="#7753c2"/><rect x="442" y="104" width="26" height="26" fill="#ffffff"/><rect x="390" y="156" width="26" height="26" fill="#ffffff"/><rect x="78" y="26" width="26" height="26" fill="#e0ecfc"/><rect x="754" y="260" width="52" height="26" fill="#a897cc"/><rect x="338" y="0" width="26" height="26" fill="#b5d5ef"/><rect x="104" y="0" width="26" height="26" fill="#deebf8"/><rect x="130" y="130" width="26" height="26" fill="#ffffff"/><rect x="390" y="26" width="26" height="26" fill="#8dc0e9"/><rect x="858" y="260" width="26" height="52" fill="#c5bbdd"/><rect x="0" y="104" width="26" height="26" fill="#ffffff"/><rect x="130" y="182" width="26" height="26" fill="#d1cef5"/><rect x="26" y="0" width="26" height="26" fill="#e0edfc"/><rect x="650" y="234" width="26" height="52" fill="#967bcf"/><rect x="832" y="26" width="26" height="26" fill="#95adc5"/><rect x="1170" y="26" width="26" height="26" fill="#dbe0e7"/><rect x="208" y="78" width="26" height="26" fill="#ffffff"/><rect x="1196" y="234" width="26" height="26" fill="#dedce6"/><rect x="312" y="260" width="78" height="26" fill="#c9b0f5"/><rect x="702" y="260" width="52" height="26" fill="#a791d6"/><rect x="1196" y="156" width="26" height="26" fill="#dbdbe1"/><rect x="26" y="78" width="26" height="26" fill="#ffffff"/><rect x="1014" y="52" width="26" height="26" fill="#c3ccda"/><rect x="1040" y="0" width="26" height="26" fill="#dbe2ea"/><rect x="858" y="130" width="52" height="26" fill="#5e6378"/><rect x="1118" y="52" width="78" height="26" fill="#dadfe5"/><rect x="1170" y="78" width="52" height="52" fill="#dadde2"/><rect x="468" y="286" width="26" height="26" fill="#c6b0ee"/><rect x="702" y="182" width="78" height="26" fill="#5c4698"/><rect x="338" y="156" width="52" height="26" fill="#ffffff"/><rect x="884" y="234" width="26" height="26" fill="#ffffff"/><rect x="390" y="104" width="26" height="52" fill="#ffffff"/><rect x="702" y="0" width="26" height="26" fill="#97b8d6"/><rect x="468" y="52" width="26" height="26" fill="#61a9e5"/><rect x="598" y="260" width="26" height="52" fill="#b198e2"/><rect x="936" y="156" width="26" height="26" fill="#86849d"/><rect x="156" y="0" width="26" height="26" fill="#dfedfa"/><rect x="364" y="130" width="26" height="26" fill="#ffffff"/><rect x="468" y="104" width="26" height="26" fill="#ffffff"/><rect x="806" y="234" width="26" height="26" fill="#9786be"/><rect x="676" y="156" width="26" height="52" fill="#4c328d"/><rect x="260" y="104" width="26" height="26" fill="#ffffff"/><rect x="910" y="286" width="26" height="26" fill="#d9d2e9"/><rect x="910" y="156" width="26" height="26" fill="#7b7896"/><rect x="988" y="234" width="26" height="26" fill="#ffffff"/><rect x="728" y="0" width="26" height="26" fill="#9bbbd9"/><rect x="806" y="130" width="52" height="52" fill="#494a6a"/><rect x="858" y="104" width="26" height="26" fill="#627492"/><rect x="0" y="234" width="26" height="52" fill="#e9e4fd"/><rect x="104" y="234" width="52" height="26" fill="#e7e1fc"/><rect x="676" y="208" width="26" height="26" fill="#6e51ad"/><rect x="52" y="78" width="26" height="26" fill="#ffffff"/><rect x="130" y="52" width="26" height="52" fill="#ffffff"/><rect x="416" y="52" width="26" height="78" fill="#ffffff"/><rect x="910" y="234" width="26" height="26" fill="#ffffff"/><rect x="52" y="52" width="52" height="26" fill="#e0eaf9"/><rect x="52" y="26" width="26" height="26" fill="#dfeaf8"/><rect x="78" y="0" width="26" height="26" fill="#dfebf9"/><rect x="130" y="260" width="52" height="26" fill="#e8e1f9"/><rect x="988" y="130" width="26" height="26" fill="#999ca9"/><rect x="1170" y="234" width="26" height="26" fill="#dedce7"/><rect x="1196" y="52" width="26" height="26" fill="#dbdfe5"/><rect x="806" y="104" width="52" height="26" fill="#516686"/><rect x="650" y="52" width="26" height="26" fill="#5387b9"/><rect x="260" y="0" width="26" height="26" fill="#cae5fa"/><rect x="468" y="260" width="52" height="26" fill="#b193e8"/><rect x="832" y="208" width="26" height="26" fill="#8879b4"/><rect x="104" y="130" width="26" height="26" fill="#ffffff"/><rect x="650" y="78" width="26" height="26" fill="#ffffff"/><rect x="572" y="78" width="26" height="26" fill="#ffffff"/><rect x="546" y="104" width="26" height="26" fill="#ffffff"/><rect x="1196" y="26" width="26" height="26" fill="#dbdfe6"/><rect x="728" y="78" width="26" height="26" fill="#4773a3"/><rect x="546" y="234" width="26" height="26" fill="#926ed6"/><rect x="182" y="182" width="26" height="26" fill="#c5bff8"/><rect x="572" y="182" width="26" height="26" fill="#7642d5"/><rect x="806" y="208" width="26" height="26" fill="#806fae"/><rect x="754" y="130" width="26" height="52" fill="#313056"/><rect x="1066" y="156" width="26" height="26" fill="#c2c2cd"/><rect x="0" y="0" width="26" height="52" fill="#e0ecfc"/><rect x="520" y="78" width="52" height="26" fill="#ffffff"/><rect x="780" y="156" width="26" height="26" fill="#494073"/><rect x="806" y="52" width="26" height="26" fill="#7491b1"/><rect x="780" y="182" width="26" height="26" fill="#5f508b"/><rect x="1066" y="286" width="26" height="26" fill="#e1ddeb"/><rect x="520" y="130" width="52" height="26" fill="#ffffff"/><rect x="260" y="78" width="26" height="26" fill="#ffffff"/><rect x="884" y="260" width="26" height="26" fill="#bfb5d7"/><rect x="884" y="104" width="26" height="26" fill="#6e7d98"/><rect x="676" y="0" width="26" height="52" fill="#84a9cd"/><rect x="260" y="286" width="26" height="26" fill="#e4d7fa"/><rect x="650" y="26" width="26" height="26" fill="#709ac1"/><rect x="780" y="130" width="26" height="26" fill="#353d59"/><rect x="572" y="104" width="26" height="26" fill="#ffffff"/><rect x="364" y="0" width="26" height="26" fill="#aecfeb"/><rect x="130" y="156" width="26" height="26" fill="#ffffff"/><rect x="1170" y="0" width="52" height="26" fill="#dbe1e8"/><rect x="494" y="182" width="26" height="26" fill="#834de2"/><rect x="312" y="130" width="26" height="26" fill="#ffffff"/><rect x="234" y="0" width="26" height="26" fill="#d1e4f4"/><rect x="1092" y="52" width="26" height="26" fill="#dbdfe7"/><rect x="1092" y="0" width="26" height="26" fill="#dbe2eb"/><rect x="546" y="208" width="26" height="26" fill="#8759df"/><rect x="1014" y="208" width="26" height="26" fill="#ffffff"/><rect x="26" y="52" width="26" height="26" fill="#e0e9f8"/><rect x="52" y="208" width="26" height="26" fill="#e7e4fa"/><rect x="598" y="182" width="26" height="26" fill="#6d3fc7"/><rect x="286" y="260" width="26" height="26" fill="#d4bffb"/><rect x="52" y="156" width="26" height="26" fill="#ffffff"/><rect x="1144" y="0" width="26" height="26" fill="#dbe2ea"/><rect x="884" y="208" width="26" height="26" fill="#ffffff"/><rect x="234" y="156" width="26" height="26" fill="#ffffff"/><rect x="936" y="260" width="26" height="26" fill="#cbc4dd"/><rect x="910" y="260" width="26" height="26" fill="#c6bddd"/><rect x="520" y="52" width="26" height="26" fill="#5699d2"/><rect x="988" y="0" width="52" height="26" fill="#dce3ec"/><rect x="858" y="0" width="26" height="26" fill="#b7c9dc"/><rect x="702" y="234" width="26" height="26" fill="#8d72c7"/><rect x="572" y="286" width="26" height="26" fill="#bba6e2"/><rect x="364" y="104" width="26" height="26" fill="#ffffff"/><rect x="494" y="0" width="26" height="52" fill="#87b8e2"/><rect x="520" y="286" width="26" height="26" fill="#bfaae7"/><rect x="1014" y="156" width="26" height="26" fill="#aaaabb"/><rect x="546" y="26" width="26" height="26" fill="#70a1cb"/><rect x="182" y="260" width="26" height="26" fill="#e5dbfc"/><rect x="520" y="0" width="26" height="26" fill="#93b9db"/><rect x="1118" y="26" width="52" height="26" fill="#dbe1e8"/><rect x="390" y="78" width="26" height="26" fill="#ffffff"/><rect x="390" y="286" width="52" height="26" fill="#cdb9f1"/><rect x="78" y="78" width="26" height="26" fill="#ffffff"/><rect x="494" y="286" width="26" height="26" fill="#c2acea"/><rect x="676" y="130" width="26" height="26" fill="#ffffff"/><rect x="78" y="208" width="26" height="26" fill="#e7e4fc"/><rect x="962" y="26" width="26" height="26" fill="#c1cddb"/><rect x="468" y="182" width="26" height="26" fill="#935afe"/><rect x="598" y="0" width="26" height="26" fill="#90b5d6"/><rect x="364" y="286" width="26" height="26" fill="#d3c0f2"/><rect x="858" y="182" width="26" height="26" fill="#f3f2f6"/><rect x="1040" y="104" width="26" height="26" fill="#b7bdc8"/><rect x="676" y="260" width="26" height="26" fill="#a28bd0"/><rect x="390" y="260" width="26" height="26" fill="#c3a5f6"/><rect x="0" y="130" width="26" height="26" fill="#ffffff"/><rect x="520" y="26" width="26" height="26" fill="#74abdb"/><rect x="702" y="78" width="26" height="26" fill="#3f6d9a"/><rect x="130" y="26" width="26" height="26" fill="#dfecfb"/><rect x="624" y="260" width="26" height="26" fill="#a68add"/><rect x="234" y="260" width="26" height="26" fill="#dccdfb"/><rect x="676" y="78" width="26" height="26" fill="#ffffff"/><rect x="546" y="286" width="26" height="26" fill="#bea8e8"/><rect x="26" y="156" width="26" height="26" fill="#ffffff"/><rect x="962" y="0" width="26" height="26" fill="#d4dee8"/><rect x="728" y="156" width="26" height="26" fill="#3a3069"/><rect x="286" y="182" width="26" height="26" fill="#a597ee"/><rect x="858" y="26" width="26" height="26" fill="#9db1c7"/><rect x="884" y="182" width="26" height="26" fill="#ffffff"/><rect x="338" y="286" width="26" height="26" fill="#d9c7f8"/><rect x="338" y="130" width="26" height="26" fill="#ffffff"/><rect x="832" y="182" width="26" height="26" fill="#6f6395"/><rect x="858" y="234" width="26" height="26" fill="#e5e1ef"/><rect x="78" y="156" width="26" height="26" fill="#ffffff"/><rect x="1118" y="0" width="26" height="26" fill="#dbe2eb"/><rect x="390" y="0" width="26" height="26" fill="#a8ccea"/><rect x="598" y="26" width="26" height="26" fill="#6f9dc8"/><rect x="364" y="234" width="26" height="26" fill="#bb96fc"/><rect x="988" y="286" width="26" height="26" fill="#e1ddeb"/><rect x="520" y="156" width="26" height="26" fill="#ffffff"/></g>
  <rect x="60" y="76" width="90" height="4" fill="#E10600"/>
  <text x="60" y="140" font-family="Space Grotesk, Arial, sans-serif" font-weight="700"
        font-size="46" fill="#12141C" letter-spacing="0.5">MOTORSPORT STRATEGY LAB</text>
  <text x="60" y="172" font-family="Inter, Arial, sans-serif" font-weight="400"
        font-size="19" fill="#4A4E5C">Bayesian &amp; Monte Carlo Race Strategy Research — F1 · WEC · IMSA</text>
  <g font-family="JetBrains Mono, Consolas, monospace"><g><text x="887" y="218.0" font-size="22" font-weight="700" fill="#E10600">3</text><text x="887" y="248.0" font-size="11" fill="#4A4E5C">SERIES</text></g><g><text x="963" y="218.0" font-size="22" font-weight="700" fill="#E10600">140+</text><text x="963" y="248.0" font-size="11" fill="#4A4E5C">TESTS</text></g><g><text x="1049" y="218.0" font-size="22" font-weight="700" fill="#E10600">5</text><text x="1049" y="248.0" font-size="11" fill="#4A4E5C">AUDITED RACES</text></g></g>
</svg>
