<svg xmlns="http://www.w3.org/2000/svg" width="1200" height="300" viewBox="0 0 1200 300" role="img"
     aria-label="Motorsport Strategy Lab -- Bayesian and Monte Carlo race strategy research across F1, WEC and IMSA">
  <title>Motorsport Strategy Lab</title>
  <rect width="1200" height="300" fill="#ffffff"/>
  <g><rect x="504" y="252" width="36" height="36" fill="#ffffff"/><rect x="0" y="216" width="72" height="36" fill="#ffffff"/><rect x="648" y="72" width="36" height="36" fill="#ffffff"/><rect x="1188" y="36" width="36" height="108" fill="#4d289f"/><rect x="504" y="0" width="72" height="36" fill="#585ceb"/><rect x="576" y="288" width="36" height="36" fill="#ffffff"/><rect x="360" y="36" width="72" height="36" fill="#4c57d5"/><rect x="288" y="216" width="72" height="36" fill="#ffffff"/><rect x="288" y="108" width="72" height="108" fill="#ffffff"/><rect x="216" y="72" width="108" height="36" fill="#ffffff"/><rect x="252" y="216" width="36" height="36" fill="#ffffff"/><rect x="576" y="216" width="36" height="72" fill="#ffffff"/><rect x="720" y="180" width="72" height="72" fill="#ffffff"/><rect x="288" y="0" width="36" height="36" fill="#4471ea"/><rect x="0" y="144" width="108" height="36" fill="#ffffff"/><rect x="396" y="288" width="108" height="36" fill="#ffffff"/><rect x="72" y="216" width="72" height="72" fill="#ffffff"/><rect x="108" y="144" width="108" height="72" fill="#ffffff"/><rect x="36" y="0" width="108" height="36" fill="#2f7fdf"/><rect x="936" y="144" width="72" height="36" fill="#4c279e"/><rect x="900" y="216" width="36" height="72" fill="#ffffff"/><rect x="1044" y="288" width="36" height="36" fill="#ffffff"/><rect x="864" y="36" width="72" height="72" fill="#6d33d3"/><rect x="540" y="36" width="36" height="36" fill="#594bd7"/><rect x="108" y="72" width="72" height="36" fill="#ffffff"/><rect x="792" y="252" width="108" height="72" fill="#ffffff"/><rect x="36" y="180" width="36" height="36" fill="#ffffff"/><rect x="756" y="252" width="36" height="72" fill="#ffffff"/><rect x="792" y="36" width="36" height="36" fill="#733ae4"/><rect x="1080" y="180" width="36" height="72" fill="#ffffff"/><rect x="936" y="288" width="36" height="36" fill="#ffffff"/><rect x="180" y="108" width="36" height="36" fill="#ffffff"/><rect x="252" y="108" width="36" height="36" fill="#ffffff"/><rect x="396" y="216" width="36" height="36" fill="#ffffff"/><rect x="1008" y="180" width="72" height="36" fill="#ffffff"/><rect x="504" y="72" width="72" height="72" fill="#ffffff"/><rect x="612" y="180" width="36" height="36" fill="#ffffff"/><rect x="1080" y="252" width="108" height="36" fill="#1b154e"/><rect x="72" y="108" width="36" height="36" fill="#ffffff"/><rect x="1116" y="180" width="36" height="72" fill="#ffffff"/><rect x="1044" y="144" width="36" height="36" fill="#442490"/><rect x="612" y="36" width="36" height="108" fill="#ffffff"/><rect x="864" y="180" width="36" height="72" fill="#ffffff"/><rect x="972" y="36" width="36" height="72" fill="#6c33d4"/><rect x="1044" y="216" width="36" height="36" fill="#ffffff"/><rect x="612" y="252" width="72" height="36" fill="#ffffff"/><rect x="72" y="72" width="36" height="36" fill="#ffffff"/><rect x="792" y="144" width="36" height="72" fill="#5329a7"/><rect x="180" y="36" width="36" height="36" fill="#ffffff"/><rect x="936" y="36" width="36" height="36" fill="#7537e4"/><rect x="324" y="36" width="36" height="72" fill="#bbc1f7"/><rect x="1080" y="0" width="108" height="72" fill="#6530c9"/><rect x="468" y="252" width="36" height="36" fill="#ffffff"/><rect x="432" y="36" width="72" height="108" fill="#ffffff"/><rect x="684" y="36" width="36" height="36" fill="#6540d7"/><rect x="396" y="72" width="36" height="72" fill="#ffffff"/><rect x="216" y="216" width="36" height="36" fill="#ffffff"/><rect x="684" y="72" width="72" height="72" fill="#7435dd"/><rect x="936" y="216" width="108" height="36" fill="#ffffff"/><rect x="216" y="0" width="36" height="72" fill="#4272e8"/><rect x="828" y="108" width="72" height="72" fill="#5d2eb9"/><rect x="1116" y="72" width="72" height="36" fill="#5028a4"/><rect x="972" y="0" width="36" height="36" fill="#7637e4"/><rect x="648" y="144" width="72" height="72" fill="#ffffff"/><rect x="900" y="0" width="36" height="36" fill="#783beb"/><rect x="468" y="216" width="72" height="36" fill="#ffffff"/><rect x="648" y="288" width="36" height="36" fill="#ffffff"/><rect x="864" y="0" width="36" height="36" fill="#7b42f8"/><rect x="108" y="288" width="72" height="36" fill="#ffffff"/><rect x="432" y="0" width="72" height="36" fill="#5060e5"/><rect x="576" y="36" width="36" height="72" fill="#c5b9fb"/><rect x="1008" y="72" width="108" height="36" fill="#5d2ebb"/><rect x="1188" y="288" width="36" height="36" fill="#ffffff"/><rect x="1080" y="288" width="72" height="36" fill="#ffffff"/><rect x="828" y="216" width="36" height="36" fill="#ffffff"/><rect x="360" y="252" width="36" height="36" fill="#ffffff"/><rect x="756" y="72" width="36" height="108" fill="#6731c7"/><rect x="396" y="144" width="36" height="36" fill="#ffffff"/><rect x="1044" y="108" width="72" height="36" fill="#4a2598"/><rect x="0" y="288" width="36" height="36" fill="#ffffff"/><rect x="756" y="36" width="36" height="36" fill="#6e3de0"/><rect x="360" y="288" width="36" height="36" fill="#ffffff"/><rect x="576" y="180" width="36" height="36" fill="#ffffff"/><rect x="792" y="72" width="36" height="36" fill="#6d32d2"/><rect x="144" y="216" width="36" height="72" fill="#ffffff"/><rect x="648" y="108" width="36" height="36" fill="#ffffff"/><rect x="180" y="0" width="36" height="36" fill="#3773dc"/><rect x="612" y="144" width="36" height="36" fill="#ffffff"/><rect x="1188" y="180" width="36" height="36" fill="#291a64"/><rect x="1152" y="144" width="36" height="36" fill="#341d73"/><rect x="504" y="288" width="72" height="36" fill="#ffffff"/><rect x="648" y="36" width="36" height="36" fill="#6d4bf0"/><rect x="108" y="36" width="72" height="36" fill="#ffffff"/><rect x="900" y="144" width="36" height="36" fill="#4e279e"/><rect x="1044" y="252" width="36" height="36" fill="#ffffff"/><rect x="36" y="108" width="36" height="36" fill="#ffffff"/><rect x="1152" y="180" width="36" height="36" fill="#28185f"/><rect x="936" y="72" width="36" height="36" fill="#5d2db8"/><rect x="180" y="216" width="36" height="36" fill="#ffffff"/><rect x="144" y="108" width="36" height="36" fill="#ffffff"/><rect x="576" y="108" width="36" height="36" fill="#ffffff"/><rect x="1008" y="288" width="36" height="36" fill="#ffffff"/><rect x="360" y="144" width="36" height="36" fill="#ffffff"/><rect x="0" y="0" width="36" height="108" fill="#ffffff"/><rect x="720" y="252" width="36" height="36" fill="#ffffff"/><rect x="1080" y="144" width="36" height="36" fill="#3b207f"/><rect x="1008" y="36" width="36" height="36" fill="#6631c8"/><rect x="1152" y="216" width="36" height="36" fill="#211756"/><rect x="252" y="252" width="72" height="72" fill="#ffffff"/><rect x="972" y="288" width="36" height="36" fill="#ffffff"/><rect x="1188" y="252" width="36" height="36" fill="#12113c"/><rect x="1116" y="108" width="72" height="36" fill="#42238c"/><rect x="540" y="180" width="36" height="36" fill="#ffffff"/><rect x="936" y="252" width="36" height="36" fill="#ffffff"/><rect x="108" y="108" width="36" height="36" fill="#ffffff"/><rect x="360" y="216" width="36" height="36" fill="#ffffff"/><rect x="972" y="180" width="36" height="36" fill="#ffffff"/><rect x="612" y="288" width="36" height="36" fill="#ffffff"/><rect x="504" y="180" width="36" height="36" fill="#ffffff"/><rect x="252" y="144" width="36" height="72" fill="#ffffff"/><rect x="936" y="180" width="36" height="36" fill="#f4f2f9"/><rect x="180" y="72" width="36" height="36" fill="#ffffff"/><rect x="828" y="180" width="36" height="36" fill="#5229a7"/><rect x="792" y="216" width="36" height="36" fill="#ffffff"/><rect x="144" y="0" width="36" height="36" fill="#377ce7"/><rect x="1116" y="144" width="36" height="36" fill="#3f2389"/><rect x="1044" y="0" width="36" height="72" fill="#6c34d5"/><rect x="216" y="180" width="36" height="36" fill="#ffffff"/><rect x="648" y="216" width="72" height="36" fill="#ffffff"/><rect x="720" y="288" width="36" height="36" fill="#ffffff"/><rect x="792" y="0" width="72" height="36" fill="#7848fb"/><rect x="396" y="252" width="36" height="36" fill="#ffffff"/><rect x="828" y="36" width="36" height="36" fill="#7d3bf1"/><rect x="684" y="252" width="36" height="36" fill="#ffffff"/><rect x="900" y="180" width="36" height="36" fill="#ffffff"/><rect x="216" y="252" width="36" height="36" fill="#ffffff"/><rect x="360" y="108" width="36" height="36" fill="#ffffff"/><rect x="684" y="0" width="72" height="36" fill="#634ae1"/><rect x="468" y="144" width="72" height="36" fill="#ffffff"/><rect x="828" y="72" width="36" height="36" fill="#6c33d2"/><rect x="684" y="288" width="36" height="36" fill="#ffffff"/><rect x="576" y="144" width="36" height="36" fill="#ffffff"/><rect x="324" y="0" width="36" height="36" fill="#4971f0"/><rect x="432" y="252" width="36" height="36" fill="#ffffff"/><rect x="504" y="36" width="36" height="36" fill="#645bf8"/><rect x="612" y="0" width="72" height="36" fill="#594bd6"/><rect x="360" y="0" width="36" height="36" fill="#4868e4"/><rect x="612" y="216" width="36" height="36" fill="#ffffff"/><rect x="972" y="108" width="72" height="36" fill="#4f27a1"/><rect x="360" y="72" width="36" height="36" fill="#ffffff"/><rect x="72" y="288" width="36" height="36" fill="#ffffff"/><rect x="216" y="288" width="36" height="36" fill="#ffffff"/><rect x="432" y="216" width="36" height="36" fill="#ffffff"/><rect x="720" y="144" width="36" height="36" fill="#6a33d0"/><rect x="1188" y="144" width="36" height="36" fill="#301b6c"/><rect x="288" y="36" width="36" height="36" fill="#4761d9"/><rect x="396" y="0" width="36" height="36" fill="#4d68eb"/><rect x="720" y="36" width="36" height="36" fill="#7545f5"/><rect x="36" y="288" width="36" height="36" fill="#ffffff"/><rect x="324" y="288" width="36" height="36" fill="#ffffff"/><rect x="1188" y="216" width="36" height="36" fill="#1b144a"/><rect x="72" y="180" width="36" height="36" fill="#ffffff"/><rect x="900" y="288" width="36" height="36" fill="#ffffff"/><rect x="216" y="108" width="36" height="72" fill="#ffffff"/><rect x="540" y="252" width="36" height="36" fill="#ffffff"/><rect x="1188" y="0" width="36" height="36" fill="#5c2cb7"/><rect x="576" y="0" width="36" height="36" fill="#615bf5"/><rect x="936" y="0" width="36" height="36" fill="#7737e5"/><rect x="324" y="252" width="36" height="36" fill="#ffffff"/><rect x="180" y="252" width="36" height="72" fill="#ffffff"/><rect x="72" y="36" width="36" height="36" fill="#ffffff"/><rect x="0" y="252" width="72" height="36" fill="#ffffff"/><rect x="900" y="108" width="36" height="36" fill="#582aaf"/><rect x="0" y="108" width="36" height="36" fill="#ffffff"/><rect x="468" y="180" width="36" height="36" fill="#ffffff"/><rect x="0" y="180" width="36" height="36" fill="#ffffff"/><rect x="1008" y="144" width="36" height="36" fill="#412289"/><rect x="396" y="180" width="36" height="36" fill="#ffffff"/><rect x="1008" y="252" width="36" height="36" fill="#ffffff"/><rect x="36" y="72" width="36" height="36" fill="#ffffff"/><rect x="972" y="252" width="36" height="36" fill="#ffffff"/><rect x="792" y="108" width="36" height="36" fill="#6932cd"/><rect x="432" y="144" width="36" height="36" fill="#ffffff"/><rect x="936" y="108" width="36" height="36" fill="#582cb1"/><rect x="360" y="180" width="36" height="36" fill="#ffffff"/><rect x="1152" y="288" width="36" height="36" fill="#ffffff"/><rect x="540" y="216" width="36" height="36" fill="#ffffff"/><rect x="756" y="0" width="36" height="36" fill="#6845e2"/><rect x="252" y="0" width="36" height="36" fill="#4073e9"/><rect x="36" y="36" width="36" height="36" fill="#ffffff"/><rect x="1008" y="0" width="36" height="36" fill="#7235dd"/><rect x="252" y="36" width="36" height="36" fill="#4768e2"/><rect x="432" y="180" width="36" height="36" fill="#ffffff"/><rect x="540" y="144" width="36" height="36" fill="#ffffff"/></g>
  <rect x="60" y="76" width="90" height="4" fill="#E10600"/>
  <text x="60" y="140" font-family="Space Grotesk, Arial, sans-serif" font-weight="700"
        font-size="46" fill="#12141C" letter-spacing="0.5">MOTORSPORT STRATEGY LAB</text>
  <text x="60" y="172" font-family="Inter, Arial, sans-serif" font-weight="400"
        font-size="19" fill="#4A4E5C">Bayesian &amp; Monte Carlo Race Strategy Research — F1 · WEC · IMSA</text>
  <g font-family="JetBrains Mono, Consolas, monospace"><g><text x="894" y="218.0" font-size="22" font-weight="700" fill="#E10600">3</text><text x="894" y="248.0" font-size="11" fill="#4A4E5C">SERIES</text></g><g><text x="970" y="218.0" font-size="22" font-weight="700" fill="#E10600">140+</text><text x="970" y="248.0" font-size="11" fill="#4A4E5C">TESTS</text></g><g><text x="1056" y="218.0" font-size="22" font-weight="700" fill="#E10600">289</text><text x="1056" y="248.0" font-size="11" fill="#4A4E5C">RACE-SEASONS</text></g></g>
</svg>
