<svg xmlns="http://www.w3.org/2000/svg" width="1200" height="300" viewBox="0 0 1200 300" role="img"
     aria-label="Motorsport Strategy Lab -- Bayesian and Monte Carlo race strategy research across F1, WEC and IMSA">
  <title>Motorsport Strategy Lab</title>
  <rect width="1200" height="300" fill="#ffffff"/>
  <g><rect x="1066" y="260" width="26" height="26" fill="#edf8ff"/><rect x="520" y="260" width="52" height="26" fill="#b5a3f6"/><rect x="104" y="182" width="26" height="52" fill="#d3cfe0"/><rect x="520" y="182" width="26" height="26" fill="#7444cc"/><rect x="1066" y="104" width="52" height="52" fill="#dfdffa"/><rect x="78" y="182" width="26" height="26" fill="#d7d4e1"/><rect x="1144" y="130" width="52" height="26" fill="#edefff"/><rect x="286" y="78" width="78" height="52" fill="#ffffff"/><rect x="910" y="130" width="26" height="26" fill="#b1a1f1"/><rect x="806" y="260" width="52" height="52" fill="#d1dbfc"/><rect x="832" y="78" width="78" height="26" fill="#ae9bf1"/><rect x="572" y="26" width="26" height="52" fill="#9c71e5"/><rect x="572" y="208" width="52" height="52" fill="#9e76fb"/><rect x="182" y="130" width="52" height="52" fill="#ffffff"/><rect x="52" y="0" width="26" height="26" fill="#dcdbe3"/><rect x="1040" y="52" width="26" height="26" fill="#e3e3fc"/><rect x="754" y="286" width="52" height="26" fill="#d0d7f7"/><rect x="1066" y="182" width="52" height="52" fill="#ffffff"/><rect x="1118" y="234" width="26" height="26" fill="#ffffff"/><rect x="1092" y="260" width="78" height="26" fill="#edfaff"/><rect x="182" y="78" width="26" height="52" fill="#ffffff"/><rect x="416" y="208" width="52" height="78" fill="#af86f8"/><rect x="26" y="104" width="52" height="52" fill="#ffffff"/><rect x="156" y="26" width="52" height="52" fill="#d0c9df"/><rect x="910" y="104" width="78" height="26" fill="#b8adee"/><rect x="1066" y="26" width="26" height="52" fill="#eceeff"/><rect x="520" y="104" width="26" height="26" fill="#ffffff"/><rect x="1066" y="78" width="52" height="26" fill="#e6e6fe"/><rect x="208" y="52" width="26" height="26" fill="#c2b6dd"/><rect x="988" y="78" width="26" height="52" fill="#cac5f3"/><rect x="1170" y="260" width="52" height="52" fill="#edf9ff"/><rect x="910" y="182" width="52" height="52" fill="#ffffff"/><rect x="884" y="0" width="78" height="52" fill="#dad4fd"/><rect x="1092" y="156" width="26" height="26" fill="#e5e7ff"/><rect x="676" y="286" width="52" height="26" fill="#cbcffa"/><rect x="338" y="52" width="78" height="26" fill="#9f84d5"/><rect x="260" y="52" width="26" height="26" fill="#b0a2d0"/><rect x="910" y="78" width="52" height="26" fill="#bdb3f1"/><rect x="832" y="234" width="26" height="26" fill="#c0c5fd"/><rect x="208" y="26" width="78" height="26" fill="#c6bddb"/><rect x="1144" y="286" width="26" height="26" fill="#ebf6fd"/><rect x="546" y="156" width="26" height="52" fill="#f6f3fc"/><rect x="312" y="182" width="52" height="52" fill="#937bc7"/><rect x="754" y="0" width="52" height="26" fill="#cab7f9"/><rect x="416" y="0" width="78" height="52" fill="#ae96dc"/><rect x="624" y="286" width="26" height="26" fill="#c8c7f9"/><rect x="26" y="26" width="26" height="26" fill="#dddce5"/><rect x="156" y="104" width="26" height="52" fill="#ffffff"/><rect x="52" y="260" width="78" height="52" fill="#e5dff3"/><rect x="1092" y="286" width="26" height="26" fill="#edf9ff"/><rect x="286" y="52" width="52" height="26" fill="#ac97d7"/><rect x="182" y="0" width="52" height="26" fill="#dddae7"/><rect x="208" y="260" width="26" height="52" fill="#e4daf7"/><rect x="832" y="52" width="78" height="26" fill="#beb0fd"/><rect x="1170" y="208" width="52" height="26" fill="#edf7ff"/><rect x="208" y="104" width="52" height="26" fill="#ffffff"/><rect x="702" y="208" width="26" height="26" fill="#947ce9"/><rect x="806" y="26" width="26" height="26" fill="#bcacf0"/><rect x="494" y="104" width="26" height="78" fill="#ffffff"/><rect x="962" y="156" width="52" height="78" fill="#ffffff"/><rect x="1118" y="156" width="78" height="52" fill="#ebeffc"/><rect x="104" y="156" width="26" height="26" fill="#ffffff"/><rect x="1118" y="78" width="52" height="52" fill="#eaecfc"/><rect x="286" y="286" width="52" height="26" fill="#e0d0fd"/><rect x="936" y="130" width="26" height="26" fill="#bfb1ff"/><rect x="130" y="208" width="26" height="26" fill="#d0cade"/><rect x="468" y="208" width="78" height="52" fill="#976ae4"/><rect x="494" y="78" width="26" height="26" fill="#ffffff"/><rect x="416" y="130" width="52" height="78" fill="#ffffff"/><rect x="1040" y="260" width="26" height="26" fill="#ecf6ff"/><rect x="286" y="234" width="26" height="26" fill="#bda7e6"/><rect x="286" y="0" width="52" height="52" fill="#bfb4d9"/><rect x="754" y="52" width="52" height="78" fill="#9677e5"/><rect x="728" y="208" width="78" height="52" fill="#aba1fb"/><rect x="598" y="104" width="52" height="26" fill="#ffffff"/><rect x="910" y="52" width="52" height="26" fill="#c6c0f2"/><rect x="988" y="260" width="52" height="26" fill="#e8f2fd"/><rect x="624" y="130" width="52" height="78" fill="#ba9bf1"/><rect x="1040" y="78" width="26" height="26" fill="#dad9f7"/><rect x="78" y="130" width="26" height="26" fill="#ffffff"/><rect x="806" y="182" width="26" height="26" fill="#a58ffe"/><rect x="1040" y="234" width="78" height="26" fill="#ffffff"/><rect x="702" y="104" width="52" height="52" fill="#8850ee"/><rect x="0" y="52" width="26" height="26" fill="#dedce7"/><rect x="364" y="78" width="26" height="26" fill="#ffffff"/><rect x="546" y="0" width="52" height="26" fill="#b79cea"/><rect x="442" y="78" width="52" height="26" fill="#ffffff"/><rect x="52" y="182" width="26" height="26" fill="#dedce6"/><rect x="260" y="208" width="26" height="78" fill="#bfaee2"/><rect x="1118" y="286" width="26" height="26" fill="#ecf8ff"/><rect x="598" y="52" width="52" height="52" fill="#ffffff"/><rect x="234" y="234" width="26" height="26" fill="#c6b6e5"/><rect x="1040" y="182" width="26" height="52" fill="#ffffff"/><rect x="390" y="182" width="26" height="78" fill="#9372d4"/><rect x="962" y="52" width="52" height="26" fill="#d5d3fb"/><rect x="1196" y="182" width="26" height="26" fill="#edf4ff"/><rect x="702" y="52" width="26" height="26" fill="#a17cf3"/><rect x="1092" y="26" width="26" height="26" fill="#eaecfa"/><rect x="0" y="286" width="52" height="26" fill="#e4def0"/><rect x="1118" y="130" width="26" height="26" fill="#e8eafc"/><rect x="1040" y="156" width="26" height="26" fill="#d7d7fb"/><rect x="182" y="234" width="52" height="26" fill="#cec3e6"/><rect x="884" y="286" width="26" height="26" fill="#e2ecff"/><rect x="364" y="182" width="26" height="52" fill="#9070d0"/><rect x="78" y="104" width="78" height="26" fill="#ffffff"/><rect x="676" y="52" width="26" height="26" fill="#a176f6"/><rect x="104" y="26" width="26" height="78" fill="#ddd9e9"/><rect x="1144" y="208" width="26" height="52" fill="#f1f9ff"/><rect x="962" y="78" width="26" height="26" fill="#ccc5fd"/><rect x="1040" y="26" width="26" height="26" fill="#eaebfc"/><rect x="650" y="104" width="52" height="26" fill="#ffffff"/><rect x="624" y="26" width="26" height="26" fill="#a680e7"/><rect x="806" y="0" width="52" height="26" fill="#d4c6ff"/><rect x="858" y="208" width="26" height="26" fill="#f8f7fe"/><rect x="728" y="52" width="26" height="26" fill="#a684f7"/><rect x="338" y="234" width="26" height="26" fill="#b398e6"/><rect x="962" y="130" width="26" height="26" fill="#beb6f2"/><rect x="806" y="78" width="26" height="26" fill="#a68af6"/><rect x="1014" y="130" width="26" height="26" fill="#cdcaf5"/><rect x="936" y="286" width="52" height="26" fill="#eaf2fd"/><rect x="312" y="234" width="26" height="26" fill="#b9a0e9"/><rect x="650" y="286" width="26" height="26" fill="#c7c8f6"/><rect x="1066" y="0" width="26" height="26" fill="#ebecfc"/><rect x="26" y="182" width="26" height="26" fill="#dddce5"/><rect x="1014" y="234" width="26" height="26" fill="#ffffff"/><rect x="26" y="234" width="26" height="26" fill="#e1ddeb"/><rect x="182" y="208" width="26" height="26" fill="#c3b8dd"/><rect x="624" y="0" width="52" height="26" fill="#b89ce9"/><rect x="572" y="130" width="52" height="52" fill="#ffffff"/><rect x="286" y="208" width="26" height="26" fill="#a893d7"/><rect x="234" y="182" width="26" height="52" fill="#aa9cca"/><rect x="702" y="156" width="26" height="26" fill="#884ff2"/><rect x="26" y="260" width="26" height="26" fill="#e3deef"/><rect x="234" y="286" width="26" height="26" fill="#e6dcf8"/><rect x="0" y="156" width="26" height="78" fill="#dddce5"/><rect x="130" y="286" width="78" height="26" fill="#e8e0f7"/><rect x="1014" y="286" width="52" height="26" fill="#eaf4fc"/><rect x="728" y="286" width="26" height="26" fill="#ccd2f7"/><rect x="156" y="78" width="26" height="26" fill="#ffffff"/><rect x="1014" y="78" width="26" height="52" fill="#d6d2fe"/><rect x="494" y="52" width="26" height="26" fill="#9269dd"/><rect x="260" y="156" width="26" height="52" fill="#f4f2f8"/><rect x="858" y="156" width="52" height="26" fill="#a795ef"/><rect x="0" y="78" width="26" height="26" fill="#ffffff"/><rect x="468" y="130" width="26" height="52" fill="#ffffff"/><rect x="208" y="182" width="26" height="52" fill="#b4a7d2"/><rect x="1196" y="130" width="26" height="26" fill="#ebeefd"/><rect x="572" y="260" width="26" height="26" fill="#b3a5f4"/><rect x="1040" y="130" width="26" height="26" fill="#d9d7ff"/><rect x="130" y="0" width="26" height="26" fill="#dedce6"/><rect x="676" y="234" width="26" height="26" fill="#aa9bfc"/><rect x="234" y="130" width="52" height="26" fill="#ffffff"/><rect x="780" y="26" width="26" height="26" fill="#c0abff"/><rect x="52" y="234" width="52" height="26" fill="#e2dded"/><rect x="1014" y="182" width="26" height="26" fill="#ffffff"/><rect x="442" y="286" width="26" height="26" fill="#cbbef4"/><rect x="1118" y="208" width="26" height="26" fill="#ffffff"/><rect x="234" y="52" width="26" height="52" fill="#ffffff"/><rect x="936" y="234" width="52" height="26" fill="#ffffff"/><rect x="156" y="234" width="26" height="26" fill="#d6cfe6"/><rect x="624" y="208" width="26" height="52" fill="#9a7af1"/><rect x="442" y="52" width="26" height="26" fill="#9873de"/><rect x="26" y="208" width="26" height="26" fill="#dfdce8"/><rect x="286" y="156" width="52" height="26" fill="#ffffff"/><rect x="988" y="26" width="52" height="26" fill="#e3e2fb"/><rect x="156" y="156" width="26" height="78" fill="#beb6d2"/><rect x="962" y="260" width="26" height="26" fill="#e2edfd"/><rect x="286" y="130" width="26" height="26" fill="#ffffff"/><rect x="546" y="52" width="26" height="26" fill="#8d63d9"/><rect x="702" y="26" width="78" height="26" fill="#b198f0"/><rect x="338" y="26" width="52" height="26" fill="#b09cda"/><rect x="650" y="208" width="26" height="26" fill="#9b74ff"/><rect x="442" y="104" width="26" height="26" fill="#ffffff"/><rect x="390" y="156" width="26" height="26" fill="#ffffff"/><rect x="78" y="26" width="26" height="26" fill="#dfdce8"/><rect x="754" y="260" width="52" height="26" fill="#bfc5f4"/><rect x="338" y="0" width="26" height="26" fill="#c1b6db"/><rect x="104" y="0" width="26" height="26" fill="#dddce5"/><rect x="130" y="130" width="26" height="26" fill="#ffffff"/><rect x="390" y="26" width="26" height="26" fill="#aa93d7"/><rect x="858" y="260" width="26" height="52" fill="#d7e3fe"/><rect x="0" y="104" width="26" height="26" fill="#ffffff"/><rect x="130" y="182" width="26" height="26" fill="#c6c0d6"/><rect x="26" y="0" width="26" height="26" fill="#dcdbe3"/><rect x="650" y="234" width="26" height="52" fill="#afa4fa"/><rect x="832" y="26" width="26" height="26" fill="#c0b4f1"/><rect x="1170" y="26" width="26" height="26" fill="#ebeffd"/><rect x="208" y="78" width="26" height="26" fill="#ffffff"/><rect x="1196" y="234" width="26" height="26" fill="#ebf6fd"/><rect x="312" y="260" width="78" height="26" fill="#c8b0f4"/><rect x="702" y="260" width="52" height="26" fill="#bfc1ff"/><rect x="1196" y="156" width="26" height="26" fill="#ebf0fd"/><rect x="26" y="78" width="26" height="26" fill="#ffffff"/><rect x="1014" y="52" width="26" height="26" fill="#e0dfff"/><rect x="1040" y="0" width="26" height="26" fill="#ebecfd"/><rect x="858" y="130" width="52" height="26" fill="#a38eea"/><rect x="1118" y="52" width="78" height="26" fill="#eaecfa"/><rect x="1170" y="78" width="52" height="52" fill="#eaecfa"/><rect x="468" y="286" width="26" height="26" fill="#cdc0fb"/><rect x="702" y="182" width="78" height="26" fill="#946df8"/><rect x="338" y="156" width="52" height="26" fill="#ffffff"/><rect x="884" y="234" width="26" height="26" fill="#ffffff"/><rect x="390" y="104" width="26" height="52" fill="#ffffff"/><rect x="702" y="0" width="26" height="26" fill="#c5a9fa"/><rect x="468" y="52" width="26" height="26" fill="#976ee2"/><rect x="598" y="260" width="26" height="52" fill="#c2bbff"/><rect x="936" y="156" width="26" height="26" fill="#bcb3f9"/><rect x="156" y="0" width="26" height="26" fill="#dfdce8"/><rect x="364" y="130" width="26" height="26" fill="#ffffff"/><rect x="468" y="104" width="26" height="26" fill="#ffffff"/><rect x="806" y="234" width="26" height="26" fill="#b6b9f4"/><rect x="676" y="156" width="26" height="52" fill="#854ced"/><rect x="260" y="104" width="26" height="26" fill="#ffffff"/><rect x="910" y="286" width="26" height="26" fill="#e6f0ff"/><rect x="910" y="156" width="26" height="26" fill="#b9acff"/><rect x="988" y="234" width="26" height="26" fill="#ffffff"/><rect x="728" y="0" width="26" height="26" fill="#c9b0fe"/><rect x="806" y="130" width="52" height="52" fill="#a17ffc"/><rect x="858" y="104" width="26" height="26" fill="#ae95fe"/><rect x="0" y="234" width="26" height="52" fill="#e1ddeb"/><rect x="104" y="234" width="52" height="26" fill="#e1dbed"/><rect x="676" y="208" width="26" height="26" fill="#9173e8"/><rect x="52" y="78" width="26" height="26" fill="#ffffff"/><rect x="130" y="52" width="26" height="52" fill="#ffffff"/><rect x="416" y="52" width="26" height="78" fill="#ffffff"/><rect x="910" y="234" width="26" height="26" fill="#ffffff"/><rect x="52" y="52" width="52" height="26" fill="#dfdce9"/><rect x="52" y="26" width="26" height="26" fill="#dedce6"/><rect x="78" y="0" width="26" height="26" fill="#dddbe4"/><rect x="130" y="260" width="52" height="26" fill="#e4def1"/><rect x="988" y="130" width="26" height="26" fill="#c7c0f5"/><rect x="1170" y="234" width="26" height="26" fill="#ebf7fd"/><rect x="1196" y="52" width="26" height="26" fill="#ebeffd"/><rect x="806" y="104" width="52" height="26" fill="#9f80f4"/><rect x="650" y="52" width="26" height="26" fill="#9c6ef0"/><rect x="260" y="0" width="26" height="26" fill="#d0cae3"/><rect x="468" y="260" width="52" height="26" fill="#baa3f9"/><rect x="832" y="208" width="26" height="26" fill="#b5b1ff"/><rect x="104" y="130" width="26" height="26" fill="#ffffff"/><rect x="650" y="78" width="26" height="26" fill="#ffffff"/><rect x="572" y="78" width="26" height="26" fill="#ffffff"/><rect x="546" y="104" width="26" height="26" fill="#ffffff"/><rect x="1196" y="26" width="26" height="26" fill="#eaeefb"/><rect x="728" y="78" width="26" height="26" fill="#9b70fa"/><rect x="546" y="234" width="26" height="26" fill="#a281f3"/><rect x="182" y="182" width="26" height="26" fill="#b6acd0"/><rect x="572" y="182" width="26" height="26" fill="#8548f1"/><rect x="806" y="208" width="26" height="26" fill="#aca4f9"/><rect x="754" y="130" width="26" height="52" fill="#9060f5"/><rect x="1066" y="156" width="26" height="26" fill="#dfe1ff"/><rect x="0" y="0" width="26" height="52" fill="#dcdbe4"/><rect x="520" y="78" width="52" height="26" fill="#ffffff"/><rect x="780" y="156" width="26" height="26" fill="#9771f9"/><rect x="806" y="52" width="26" height="26" fill="#ae9af0"/><rect x="780" y="182" width="26" height="26" fill="#947ae5"/><rect x="1066" y="286" width="26" height="26" fill="#ebf7fe"/><rect x="520" y="130" width="52" height="26" fill="#ffffff"/><rect x="260" y="78" width="26" height="26" fill="#ffffff"/><rect x="884" y="260" width="26" height="26" fill="#d3dffb"/><rect x="884" y="104" width="26" height="26" fill="#b49efd"/><rect x="676" y="0" width="26" height="52" fill="#b897f4"/><rect x="260" y="286" width="26" height="26" fill="#e3d7f8"/><rect x="650" y="26" width="26" height="26" fill="#a884e9"/><rect x="780" y="130" width="26" height="26" fill="#8c65e5"/><rect x="572" y="104" width="26" height="26" fill="#ffffff"/><rect x="364" y="0" width="26" height="26" fill="#bdb0d8"/><rect x="130" y="156" width="26" height="26" fill="#ffffff"/><rect x="1170" y="0" width="52" height="26" fill="#ebeffc"/><rect x="494" y="182" width="26" height="26" fill="#7447ca"/><rect x="312" y="130" width="26" height="26" fill="#ffffff"/><rect x="234" y="0" width="26" height="26" fill="#d4cfe1"/><rect x="1092" y="52" width="26" height="26" fill="#ebedfd"/><rect x="1092" y="0" width="26" height="26" fill="#edefff"/><rect x="546" y="208" width="26" height="26" fill="#9a60ff"/><rect x="1014" y="208" width="26" height="26" fill="#ffffff"/><rect x="26" y="52" width="26" height="26" fill="#dedce7"/><rect x="52" y="208" width="26" height="26" fill="#dfdce8"/><rect x="598" y="182" width="26" height="26" fill="#8949f6"/><rect x="286" y="260" width="26" height="26" fill="#d1bdf3"/><rect x="52" y="156" width="26" height="26" fill="#ffffff"/><rect x="1144" y="0" width="26" height="26" fill="#ecf0ff"/><rect x="884" y="208" width="26" height="26" fill="#ffffff"/><rect x="234" y="156" width="26" height="26" fill="#ffffff"/><rect x="936" y="260" width="26" height="26" fill="#dce8fb"/><rect x="910" y="260" width="26" height="26" fill="#dbe8ff"/><rect x="520" y="52" width="26" height="26" fill="#9267e1"/><rect x="988" y="0" width="52" height="26" fill="#ecebff"/><rect x="858" y="0" width="26" height="26" fill="#d7cefb"/><rect x="702" y="234" width="26" height="26" fill="#aea2ff"/><rect x="572" y="286" width="26" height="26" fill="#c7c2f8"/><rect x="364" y="104" width="26" height="26" fill="#ffffff"/><rect x="494" y="0" width="26" height="52" fill="#ae91e5"/><rect x="520" y="286" width="26" height="26" fill="#c9c0f9"/><rect x="1014" y="156" width="26" height="26" fill="#d2d2fe"/><rect x="546" y="26" width="26" height="26" fill="#a07ddd"/><rect x="182" y="260" width="26" height="26" fill="#e1d8f3"/><rect x="520" y="0" width="26" height="26" fill="#b39be0"/><rect x="1118" y="26" width="52" height="26" fill="#eceffe"/><rect x="390" y="78" width="26" height="26" fill="#ffffff"/><rect x="390" y="286" width="52" height="26" fill="#d2c2f8"/><rect x="78" y="78" width="26" height="26" fill="#ffffff"/><rect x="494" y="286" width="26" height="26" fill="#cbc0fa"/><rect x="676" y="130" width="26" height="26" fill="#ffffff"/><rect x="78" y="208" width="26" height="26" fill="#dfdce9"/><rect x="962" y="26" width="26" height="26" fill="#dddbfd"/><rect x="468" y="182" width="26" height="26" fill="#7f50da"/><rect x="598" y="0" width="26" height="26" fill="#b79bea"/><rect x="364" y="286" width="26" height="26" fill="#d5c6f7"/><rect x="858" y="182" width="26" height="26" fill="#f7f6fe"/><rect x="1040" y="104" width="26" height="26" fill="#d9d6fb"/><rect x="676" y="260" width="26" height="26" fill="#b8b5f7"/><rect x="390" y="260" width="26" height="26" fill="#c7a9fd"/><rect x="0" y="130" width="26" height="26" fill="#ffffff"/><rect x="520" y="26" width="26" height="26" fill="#a682e7"/><rect x="702" y="78" width="26" height="26" fill="#8e62e8"/><rect x="130" y="26" width="26" height="26" fill="#e0ddea"/><rect x="624" y="260" width="26" height="26" fill="#bbb1ff"/><rect x="234" y="260" width="26" height="26" fill="#d8caf1"/><rect x="676" y="78" width="26" height="26" fill="#ffffff"/><rect x="546" y="286" width="26" height="26" fill="#c9c2fc"/><rect x="26" y="156" width="26" height="26" fill="#ffffff"/><rect x="962" y="0" width="26" height="26" fill="#e8e6ff"/><rect x="728" y="156" width="26" height="26" fill="#8556e6"/><rect x="286" y="182" width="26" height="26" fill="#9581c2"/><rect x="858" y="26" width="26" height="26" fill="#c4bbf2"/><rect x="884" y="182" width="26" height="26" fill="#ffffff"/><rect x="338" y="286" width="26" height="26" fill="#dbcafc"/><rect x="338" y="130" width="26" height="26" fill="#ffffff"/><rect x="832" y="182" width="26" height="26" fill="#a494f2"/><rect x="858" y="234" width="26" height="26" fill="#eef0fe"/><rect x="78" y="156" width="26" height="26" fill="#ffffff"/><rect x="1118" y="0" width="26" height="26" fill="#edefff"/><rect x="390" y="0" width="26" height="26" fill="#baabda"/><rect x="598" y="26" width="26" height="26" fill="#a57fe7"/><rect x="364" y="234" width="26" height="26" fill="#b393ed"/><rect x="988" y="286" width="26" height="26" fill="#ebf4fc"/><rect x="520" y="156" width="26" height="26" fill="#ffffff"/></g>
  <rect x="60" y="76" width="90" height="4" fill="#E10600"/>
  <text x="60" y="140" font-family="Space Grotesk, Arial, sans-serif" font-weight="700"
        font-size="46" fill="#12141C" letter-spacing="0.5">MOTORSPORT STRATEGY LAB</text>
  <text x="60" y="172" font-family="Inter, Arial, sans-serif" font-weight="400"
        font-size="19" fill="#4A4E5C">Bayesian &amp; Monte Carlo Race Strategy Research — F1 · WEC · IMSA</text>
  <g font-family="JetBrains Mono, Consolas, monospace"><g><text x="887" y="218.0" font-size="22" font-weight="700" fill="#E10600">3</text><text x="887" y="248.0" font-size="11" fill="#4A4E5C">SERIES</text></g><g><text x="963" y="218.0" font-size="22" font-weight="700" fill="#E10600">140+</text><text x="963" y="248.0" font-size="11" fill="#4A4E5C">TESTS</text></g><g><text x="1049" y="218.0" font-size="22" font-weight="700" fill="#E10600">5</text><text x="1049" y="248.0" font-size="11" fill="#4A4E5C">AUDITED RACES</text></g></g>
</svg>
