<svg xmlns="http://www.w3.org/2000/svg" width="1200" height="300" viewBox="0 0 1200 300" role="img"
     aria-label="Motorsport Strategy Lab -- Bayesian and Monte Carlo race strategy research across F1, WEC and IMSA">
  <title>Motorsport Strategy Lab</title>
  <rect width="1200" height="300" fill="#ffffff"/>
  <g><rect x="504" y="252" width="36" height="36" fill="#ffffff"/><rect x="0" y="216" width="72" height="36" fill="#ffffff"/><rect x="648" y="72" width="36" height="36" fill="#ffffff"/><rect x="1188" y="36" width="36" height="108" fill="#5863f4"/><rect x="504" y="0" width="72" height="36" fill="#4e27a1"/><rect x="576" y="288" width="36" height="36" fill="#ffffff"/><rect x="360" y="36" width="72" height="36" fill="#412289"/><rect x="288" y="216" width="72" height="36" fill="#ffffff"/><rect x="288" y="108" width="72" height="108" fill="#ffffff"/><rect x="216" y="72" width="108" height="36" fill="#ffffff"/><rect x="252" y="216" width="36" height="36" fill="#ffffff"/><rect x="576" y="216" width="36" height="72" fill="#ffffff"/><rect x="720" y="180" width="72" height="72" fill="#ffffff"/><rect x="288" y="0" width="36" height="36" fill="#331d74"/><rect x="0" y="144" width="108" height="36" fill="#ffffff"/><rect x="396" y="288" width="108" height="36" fill="#ffffff"/><rect x="72" y="216" width="72" height="72" fill="#ffffff"/><rect x="108" y="144" width="108" height="72" fill="#ffffff"/><rect x="36" y="0" width="108" height="36" fill="#181347"/><rect x="936" y="144" width="72" height="36" fill="#575ae5"/><rect x="900" y="216" width="36" height="72" fill="#ffffff"/><rect x="1044" y="288" width="36" height="36" fill="#ffffff"/><rect x="864" y="36" width="72" height="72" fill="#6f3ee3"/><rect x="540" y="36" width="36" height="36" fill="#5328a6"/><rect x="108" y="72" width="72" height="36" fill="#ffffff"/><rect x="792" y="252" width="108" height="72" fill="#ffffff"/><rect x="36" y="180" width="36" height="36" fill="#ffffff"/><rect x="756" y="252" width="36" height="72" fill="#ffffff"/><rect x="792" y="36" width="36" height="36" fill="#7235dc"/><rect x="1080" y="180" width="36" height="72" fill="#ffffff"/><rect x="936" y="288" width="36" height="36" fill="#ffffff"/><rect x="180" y="108" width="36" height="36" fill="#ffffff"/><rect x="252" y="108" width="36" height="36" fill="#ffffff"/><rect x="396" y="216" width="36" height="36" fill="#ffffff"/><rect x="1008" y="180" width="72" height="36" fill="#ffffff"/><rect x="504" y="72" width="72" height="72" fill="#ffffff"/><rect x="612" y="180" width="36" height="36" fill="#ffffff"/><rect x="1080" y="252" width="108" height="36" fill="#3388f0"/><rect x="72" y="108" width="36" height="36" fill="#ffffff"/><rect x="1116" y="180" width="36" height="72" fill="#ffffff"/><rect x="1044" y="144" width="36" height="36" fill="#5163ea"/><rect x="612" y="36" width="36" height="108" fill="#ffffff"/><rect x="864" y="180" width="36" height="72" fill="#ffffff"/><rect x="972" y="36" width="36" height="72" fill="#704bf6"/><rect x="1044" y="216" width="36" height="36" fill="#ffffff"/><rect x="612" y="252" width="72" height="36" fill="#ffffff"/><rect x="72" y="72" width="36" height="36" fill="#ffffff"/><rect x="792" y="144" width="36" height="72" fill="#5a4bd8"/><rect x="180" y="36" width="36" height="36" fill="#ffffff"/><rect x="936" y="36" width="36" height="36" fill="#7845f6"/><rect x="324" y="36" width="36" height="72" fill="#b6a9d6"/><rect x="1080" y="0" width="108" height="72" fill="#6b4ff3"/><rect x="468" y="252" width="36" height="36" fill="#ffffff"/><rect x="432" y="36" width="72" height="108" fill="#ffffff"/><rect x="684" y="36" width="36" height="36" fill="#612ebe"/><rect x="396" y="72" width="36" height="72" fill="#ffffff"/><rect x="216" y="216" width="36" height="36" fill="#ffffff"/><rect x="684" y="72" width="72" height="72" fill="#7436de"/><rect x="936" y="216" width="108" height="36" fill="#ffffff"/><rect x="216" y="0" width="36" height="72" fill="#2f1c6f"/><rect x="828" y="108" width="72" height="72" fill="#644ce4"/><rect x="1116" y="72" width="72" height="36" fill="#5a5bea"/><rect x="972" y="0" width="36" height="36" fill="#773ceb"/><rect x="648" y="144" width="72" height="72" fill="#ffffff"/><rect x="900" y="0" width="36" height="36" fill="#7737e5"/><rect x="468" y="216" width="72" height="36" fill="#ffffff"/><rect x="648" y="288" width="36" height="36" fill="#ffffff"/><rect x="864" y="0" width="36" height="36" fill="#7a38ea"/><rect x="108" y="288" width="72" height="36" fill="#ffffff"/><rect x="432" y="0" width="72" height="36" fill="#43238f"/><rect x="576" y="36" width="36" height="72" fill="#c3aeeb"/><rect x="1008" y="72" width="108" height="36" fill="#6555f3"/><rect x="1188" y="288" width="36" height="36" fill="#ffffff"/><rect x="1080" y="288" width="72" height="36" fill="#ffffff"/><rect x="828" y="216" width="36" height="36" fill="#ffffff"/><rect x="360" y="252" width="36" height="36" fill="#ffffff"/><rect x="756" y="72" width="36" height="108" fill="#693eda"/><rect x="396" y="144" width="36" height="36" fill="#ffffff"/><rect x="1044" y="108" width="72" height="36" fill="#5459e1"/><rect x="0" y="288" width="36" height="36" fill="#ffffff"/><rect x="756" y="36" width="36" height="36" fill="#6c33d3"/><rect x="360" y="288" width="36" height="36" fill="#ffffff"/><rect x="576" y="180" width="36" height="36" fill="#ffffff"/><rect x="792" y="72" width="36" height="36" fill="#6e39da"/><rect x="144" y="216" width="36" height="72" fill="#ffffff"/><rect x="648" y="108" width="36" height="36" fill="#ffffff"/><rect x="180" y="0" width="36" height="36" fill="#241759"/><rect x="612" y="144" width="36" height="36" fill="#ffffff"/><rect x="1188" y="180" width="36" height="36" fill="#3d7bec"/><rect x="1152" y="144" width="36" height="36" fill="#4365d9"/><rect x="504" y="288" width="72" height="36" fill="#ffffff"/><rect x="648" y="36" width="36" height="36" fill="#6832cd"/><rect x="108" y="36" width="72" height="36" fill="#ffffff"/><rect x="900" y="144" width="36" height="36" fill="#564fd7"/><rect x="1044" y="252" width="36" height="36" fill="#ffffff"/><rect x="36" y="108" width="36" height="36" fill="#ffffff"/><rect x="1152" y="180" width="36" height="36" fill="#396ad2"/><rect x="936" y="72" width="36" height="36" fill="#6243d8"/><rect x="180" y="216" width="36" height="36" fill="#ffffff"/><rect x="144" y="108" width="36" height="36" fill="#ffffff"/><rect x="576" y="108" width="36" height="36" fill="#ffffff"/><rect x="1008" y="288" width="36" height="36" fill="#ffffff"/><rect x="360" y="144" width="36" height="36" fill="#ffffff"/><rect x="0" y="0" width="36" height="108" fill="#ffffff"/><rect x="720" y="252" width="36" height="36" fill="#ffffff"/><rect x="1080" y="144" width="36" height="36" fill="#485fd9"/><rect x="1008" y="36" width="36" height="36" fill="#6b45e6"/><rect x="1152" y="216" width="36" height="36" fill="#377de6"/><rect x="252" y="252" width="72" height="72" fill="#ffffff"/><rect x="972" y="288" width="36" height="36" fill="#ffffff"/><rect x="1188" y="252" width="36" height="36" fill="#2a85e0"/><rect x="1116" y="108" width="72" height="36" fill="#4f60e2"/><rect x="540" y="180" width="36" height="36" fill="#ffffff"/><rect x="936" y="252" width="36" height="36" fill="#ffffff"/><rect x="108" y="108" width="36" height="36" fill="#ffffff"/><rect x="360" y="216" width="36" height="36" fill="#ffffff"/><rect x="972" y="180" width="36" height="36" fill="#ffffff"/><rect x="612" y="288" width="36" height="36" fill="#ffffff"/><rect x="504" y="180" width="36" height="36" fill="#ffffff"/><rect x="252" y="144" width="36" height="72" fill="#ffffff"/><rect x="936" y="180" width="36" height="36" fill="#ffffff"/><rect x="180" y="72" width="36" height="36" fill="#ffffff"/><rect x="828" y="180" width="36" height="36" fill="#5c59eb"/><rect x="792" y="216" width="36" height="36" fill="#ffffff"/><rect x="144" y="0" width="36" height="36" fill="#211758"/><rect x="1116" y="144" width="36" height="36" fill="#4f6ff5"/><rect x="1044" y="0" width="36" height="72" fill="#7148f2"/><rect x="216" y="180" width="36" height="36" fill="#ffffff"/><rect x="648" y="216" width="72" height="36" fill="#ffffff"/><rect x="720" y="288" width="36" height="36" fill="#ffffff"/><rect x="792" y="0" width="72" height="36" fill="#7437e3"/><rect x="396" y="252" width="36" height="36" fill="#ffffff"/><rect x="828" y="36" width="36" height="36" fill="#7c3af0"/><rect x="684" y="252" width="36" height="36" fill="#ffffff"/><rect x="900" y="180" width="36" height="36" fill="#ffffff"/><rect x="216" y="252" width="36" height="36" fill="#ffffff"/><rect x="360" y="108" width="36" height="36" fill="#ffffff"/><rect x="684" y="0" width="72" height="36" fill="#5e2dba"/><rect x="468" y="144" width="72" height="36" fill="#ffffff"/><rect x="828" y="72" width="36" height="36" fill="#6e3ee0"/><rect x="684" y="288" width="36" height="36" fill="#ffffff"/><rect x="576" y="144" width="36" height="36" fill="#ffffff"/><rect x="324" y="0" width="36" height="36" fill="#38207e"/><rect x="432" y="252" width="36" height="36" fill="#ffffff"/><rect x="504" y="36" width="36" height="36" fill="#5b2eb9"/><rect x="612" y="0" width="72" height="36" fill="#5128a3"/><rect x="360" y="0" width="36" height="36" fill="#391f7e"/><rect x="612" y="216" width="36" height="36" fill="#ffffff"/><rect x="972" y="108" width="72" height="36" fill="#5851db"/><rect x="360" y="72" width="36" height="36" fill="#ffffff"/><rect x="72" y="288" width="36" height="36" fill="#ffffff"/><rect x="216" y="288" width="36" height="36" fill="#ffffff"/><rect x="432" y="216" width="36" height="36" fill="#ffffff"/><rect x="720" y="144" width="36" height="36" fill="#6f48ef"/><rect x="1188" y="144" width="36" height="36" fill="#3f67d6"/><rect x="288" y="36" width="36" height="36" fill="#391f7c"/><rect x="396" y="0" width="36" height="36" fill="#3f2289"/><rect x="720" y="36" width="36" height="36" fill="#7236df"/><rect x="36" y="288" width="36" height="36" fill="#ffffff"/><rect x="324" y="288" width="36" height="36" fill="#ffffff"/><rect x="1188" y="216" width="36" height="36" fill="#3078d9"/><rect x="72" y="180" width="36" height="36" fill="#ffffff"/><rect x="900" y="288" width="36" height="36" fill="#ffffff"/><rect x="216" y="108" width="36" height="72" fill="#ffffff"/><rect x="540" y="252" width="36" height="36" fill="#ffffff"/><rect x="1188" y="0" width="36" height="36" fill="#624ce3"/><rect x="576" y="0" width="36" height="36" fill="#572cb1"/><rect x="936" y="0" width="36" height="36" fill="#7738e5"/><rect x="324" y="252" width="36" height="36" fill="#ffffff"/><rect x="180" y="252" width="36" height="72" fill="#ffffff"/><rect x="72" y="36" width="36" height="36" fill="#ffffff"/><rect x="0" y="252" width="72" height="36" fill="#ffffff"/><rect x="900" y="108" width="36" height="36" fill="#5e48d9"/><rect x="0" y="108" width="36" height="36" fill="#ffffff"/><rect x="468" y="180" width="36" height="36" fill="#ffffff"/><rect x="0" y="180" width="36" height="36" fill="#ffffff"/><rect x="1008" y="144" width="36" height="36" fill="#4c57d4"/><rect x="396" y="180" width="36" height="36" fill="#ffffff"/><rect x="1008" y="252" width="36" height="36" fill="#ffffff"/><rect x="36" y="72" width="36" height="36" fill="#ffffff"/><rect x="972" y="252" width="36" height="36" fill="#ffffff"/><rect x="792" y="108" width="36" height="36" fill="#6d43e7"/><rect x="432" y="144" width="36" height="36" fill="#ffffff"/><rect x="936" y="108" width="36" height="36" fill="#604fe4"/><rect x="360" y="180" width="36" height="36" fill="#ffffff"/><rect x="1152" y="288" width="36" height="36" fill="#ffffff"/><rect x="540" y="216" width="36" height="36" fill="#ffffff"/><rect x="756" y="0" width="36" height="36" fill="#6330c4"/><rect x="252" y="0" width="36" height="36" fill="#2f1b6c"/><rect x="36" y="36" width="36" height="36" fill="#ffffff"/><rect x="1008" y="0" width="36" height="36" fill="#743feb"/><rect x="252" y="36" width="36" height="36" fill="#381f7b"/><rect x="432" y="180" width="36" height="36" fill="#ffffff"/><rect x="540" y="144" width="36" height="36" fill="#ffffff"/></g>
  <rect x="60" y="76" width="90" height="4" fill="#E10600"/>
  <text x="60" y="140" font-family="Space Grotesk, Arial, sans-serif" font-weight="700"
        font-size="46" fill="#12141C" letter-spacing="0.5">MOTORSPORT STRATEGY LAB</text>
  <text x="60" y="172" font-family="Inter, Arial, sans-serif" font-weight="400"
        font-size="19" fill="#4A4E5C">Bayesian &amp; Monte Carlo Race Strategy Research — F1 · WEC · IMSA</text>
  <g font-family="JetBrains Mono, Consolas, monospace"><g><text x="887" y="218.0" font-size="22" font-weight="700" fill="#E10600">3</text><text x="887" y="248.0" font-size="11" fill="#4A4E5C">SERIES</text></g><g><text x="963" y="218.0" font-size="22" font-weight="700" fill="#E10600">140+</text><text x="963" y="248.0" font-size="11" fill="#4A4E5C">TESTS</text></g><g><text x="1049" y="218.0" font-size="22" font-weight="700" fill="#E10600">5</text><text x="1049" y="248.0" font-size="11" fill="#4A4E5C">AUDITED RACES</text></g></g>
</svg>
